<svg width="384" height="85" viewBox="0 0 384 85" fill="none" xmlns="http://www.w3.org/2000/svg">
<g clip-path="url(#clip0_824_1704)">
<path d="M61.6455 48.3651C61.6455 61.2533 51.6229 71.7362 38.9089 71.7362H33.403C26.2111 71.7362 19.3416 68.7402 14.4396 63.4654L1.52322 49.5678C0.518859 48.487 0 47.0683 0 45.8186C0 42.2221 3.00077 40.7224 5.07686 40.7224C6.46307 40.7224 7.84605 41.2769 8.86952 42.3747L13.1966 47.031C13.468 47.1803 13.8081 47.2939 14.132 47.2939C14.7969 47.2939 15.4379 46.7791 15.4379 45.993V13.3085C15.4379 11.158 17.1787 9.4133 19.1787 9.4133C21.3244 9.4133 22.9195 11.158 22.9195 13.3085V37.978C23.2169 39.4062 24.3828 40.5748 25.8079 40.5748C27.233 40.5748 28.2532 39.4122 28.2532 38.124L28.399 8.11491C28.399 5.96444 30.1398 4.21973 32.1398 4.21973C34.2855 4.21973 35.8807 5.96444 35.8807 8.11491V37.978C36.1722 39.4062 37.3381 40.5748 38.7632 40.5748C40.1883 40.5748 41.3526 39.412 41.3526 38.124L41.3539 13.4221C41.3539 11.2716 43.0948 9.52691 45.0948 9.52691C47.2405 9.52691 48.8356 11.2716 48.8356 13.4221V38.124C49.1274 39.4062 50.2934 40.5748 51.7185 40.5748C53.1436 40.5748 54.1638 39.4122 54.1638 38.124V21.0988C54.1638 18.9484 55.9047 17.2037 57.9047 17.2037C60.0504 17.2037 61.6455 18.9484 61.6455 21.0988V48.3651Z" fill="white"/>
</g>
<path d="M144.139 8.43945V70.7984H133.884V26.3454L114.891 57.703H113.643L94.6499 26.2563V70.7984H84.3955V8.43945H95.4525L114.267 39.6189L133.171 8.43945H144.139Z" fill="white"/>
<path d="M163.539 52.6252C164.253 56.0104 165.858 58.6236 168.354 60.4647C170.911 62.2463 174.061 63.1372 177.806 63.1372C182.859 63.1372 186.693 61.2961 189.309 57.614L197.245 62.2463C192.906 68.7198 186.396 71.9565 177.717 71.9565C170.524 71.9565 164.669 69.7591 160.151 65.3643C155.692 60.9101 153.463 55.2978 153.463 48.5274C153.463 41.9351 155.663 36.3822 160.062 31.8686C164.401 27.355 170.049 25.0982 177.004 25.0982C183.483 25.0982 188.834 27.3847 193.054 31.9577C197.275 36.5307 199.385 42.0836 199.385 48.6165C199.385 49.0916 199.355 49.6855 199.296 50.3981C199.237 51.0514 199.147 51.7938 199.029 52.6252H163.539ZM189.666 44.7858C189.012 41.1631 187.526 38.4312 185.207 36.5901C182.889 34.749 180.125 33.8285 176.915 33.8285C173.348 33.8285 170.376 34.8084 167.998 36.7682C165.62 38.7281 164.104 41.4006 163.45 44.7858H189.666Z" fill="white"/>
<path d="M247.272 70.7984H235.769L217.489 50.22V70.7984H207.859V8.43945H217.489V45.9439L234.788 26.2563H246.558L226.941 48.0819L247.272 70.7984Z" fill="white"/>
<path d="M277.757 35.5211H266.7V56.9013C266.7 58.3266 266.938 59.4253 267.413 60.1974C267.889 60.9695 268.573 61.504 269.464 61.8009C270.416 62.0979 271.575 62.276 272.942 62.3354C274.309 62.3354 275.914 62.276 277.757 62.1573V70.7984C270.386 71.6893 265.095 71.0657 261.885 68.9277C258.675 66.7302 257.07 62.7215 257.07 56.9013V35.5211H248.866V26.2563H257.07V16.6352L266.7 13.7845V26.2563H277.757V35.5211Z" fill="white"/>
<path d="M292.242 52.6252C292.956 56.0104 294.561 58.6236 297.057 60.4647C299.614 62.2463 302.764 63.1372 306.509 63.1372C311.562 63.1372 315.396 61.2961 318.012 57.614L325.948 62.2463C321.609 68.7198 315.099 71.9565 306.42 71.9565C299.227 71.9565 293.372 69.7591 288.854 65.3643C284.395 60.9101 282.166 55.2978 282.166 48.5274C282.166 41.9351 284.366 36.3822 288.765 31.8686C293.104 27.355 298.752 25.0982 305.707 25.0982C312.186 25.0982 317.536 27.3847 321.757 31.9577C325.978 36.5307 328.088 42.0836 328.088 48.6165C328.088 49.0916 328.058 49.6855 327.999 50.3981C327.94 51.0514 327.85 51.7938 327.731 52.6252H292.242ZM318.369 44.7858C317.715 41.1631 316.229 38.4312 313.91 36.5901C311.592 34.749 308.828 33.8285 305.618 33.8285C302.051 33.8285 299.079 34.8084 296.701 36.7682C294.323 38.7281 292.807 41.4006 292.153 44.7858H318.369Z" fill="white"/>
<path d="M361.797 25.0982C367.86 25.0982 373.092 27.3847 377.491 31.9577C381.83 36.4713 384 41.9945 384 48.5274C384 55.1196 381.83 60.6725 377.491 65.1861C373.151 69.6997 367.92 71.9565 361.797 71.9565C355.02 71.9565 349.818 69.4622 346.192 64.4735V84.3955H336.562V26.2563H346.192V32.6704C349.818 27.6223 355.02 25.0982 361.797 25.0982ZM350.205 58.7721C352.88 61.4446 356.239 62.7808 360.281 62.7808C364.323 62.7808 367.682 61.4446 370.357 58.7721C373.032 56.0401 374.37 52.6252 374.37 48.5274C374.37 44.4295 373.032 41.0443 370.357 38.3718C367.682 35.6398 364.323 34.2739 360.281 34.2739C356.239 34.2739 352.88 35.6398 350.205 38.3718C347.53 41.0443 346.192 44.4295 346.192 48.5274C346.192 52.6252 347.53 56.0401 350.205 58.7721Z" fill="white"/>
<defs>
<clipPath id="clip0_824_1704">
<rect width="67.5165" height="67.5165" fill="white" transform="translate(0 4.21973)"/>
</clipPath>
</defs>
</svg>
