<svg width="96" height="96" viewBox="0 0 96 96" fill="none" xmlns="http://www.w3.org/2000/svg">
<g clip-path="url(#clip0_3568_1274)">
<path d="M61.6761 73.3611C61.9712 73.8138 62.1387 74.3377 62.1607 74.8777C62.1827 75.4176 62.0585 75.9535 61.8011 76.4286C61.5437 76.9038 61.1628 77.3006 60.6985 77.5772C60.2343 77.8538 59.704 77.9998 59.1636 77.9999H3.83606C3.29567 77.9998 2.76533 77.8538 2.30107 77.5772C1.83681 77.3006 1.45588 76.9038 1.19851 76.4286C0.941146 75.9535 0.816905 75.4176 0.838916 74.8777C0.860926 74.3377 1.02837 73.8138 1.32356 73.3611C5.54646 66.861 11.7579 61.9005 19.0311 59.2199C15.0103 56.5431 11.9577 52.6434 10.3247 48.0975C8.69165 43.5517 8.56489 38.601 9.96315 33.9775C11.3614 29.354 14.2104 25.3032 18.089 22.4242C21.9675 19.5452 26.6695 17.9907 31.4998 17.9907C36.3301 17.9907 41.0322 19.5452 44.9107 22.4242C48.7892 25.3032 51.6382 29.354 53.0365 33.9775C54.4347 38.601 54.308 43.5517 52.6749 48.0975C51.0419 52.6434 47.9893 56.5431 43.9686 59.2199C51.2417 61.9005 57.4532 66.861 61.6761 73.3611ZM94.6423 73.3048C90.4183 66.8321 84.2207 61.893 76.9686 59.2199C81.7153 56.0224 85.0651 51.1364 86.3363 45.5561C87.6074 39.9759 86.7044 34.121 83.8109 29.1832C80.9174 24.2454 76.2509 20.5957 70.7614 18.9772C65.2719 17.3587 59.3718 17.8929 54.2623 20.4711C54.0669 20.572 53.8961 20.7146 53.762 20.8888C53.6278 21.063 53.5336 21.2646 53.486 21.4793C53.4384 21.694 53.4386 21.9165 53.4866 22.1311C53.5346 22.3457 53.6291 22.5471 53.7636 22.7211C57.5629 27.4604 59.7449 33.2917 59.9899 39.361C60.2348 45.4303 58.5299 51.4185 55.1248 56.4486C54.9047 56.7773 54.8234 57.1797 54.8986 57.5681C54.9737 57.9565 55.1992 58.2995 55.5261 58.5224C59.9657 61.6209 63.7663 65.5463 66.7198 70.0836C67.911 71.9078 68.3975 74.1032 68.0886 76.2598C68.0538 76.4744 68.066 76.6939 68.1245 76.9032C68.1829 77.1126 68.2862 77.3067 68.4271 77.4722C68.5679 77.6377 68.7431 77.7706 68.9404 77.8617C69.1377 77.9528 69.3525 77.9999 69.5698 77.9999H92.1823C92.8429 78.0001 93.4851 77.7822 94.0092 77.3801C94.5334 76.978 94.9101 76.4142 95.0811 75.7761C95.1854 75.3565 95.2002 74.9196 95.1246 74.4938C95.049 74.068 94.8847 73.6629 94.6423 73.3048Z" fill="#FFDE67"/>
</g>
<defs>
<clipPath id="clip0_3568_1274">
<rect width="96" height="96" fill="white"/>
</clipPath>
</defs>
</svg>
