<svg width="128" height="128" viewBox="0 0 128 128" fill="none" xmlns="http://www.w3.org/2000/svg">
<rect width="128" height="128" rx="30" fill="#1D1D1F"/>
<path d="M98.6957 76.9231C98.6957 92.9578 86.2262 106 70.4082 106H63.558C54.6104 106 46.0637 102.272 39.9649 95.71L23.8951 78.4193C22.6455 77.0747 22 75.3097 22 73.7549C22 69.2803 25.7334 67.4145 28.3163 67.4145C30.041 67.4145 31.7616 68.1043 33.0349 69.4701L38.4184 75.2633C38.7561 75.449 39.1792 75.5904 39.5821 75.5904C40.4094 75.5904 41.2069 74.9499 41.2069 73.9718V33.3077C41.2069 30.6322 43.3727 28.4615 45.861 28.4615C48.5306 28.4615 50.5151 30.6322 50.5151 33.3077V64C50.885 65.7769 52.3357 67.2308 54.1087 67.2308C55.8817 67.2308 57.151 65.7844 57.151 64.1817L57.3323 26.8462C57.3323 24.1707 59.4982 22 61.9864 22C64.656 22 66.6406 24.1707 66.6406 26.8462V64C67.0032 65.7769 68.4539 67.2308 70.2269 67.2308C71.9999 67.2308 73.4485 65.7842 73.4485 64.1817L73.4501 33.449C73.4501 30.7736 75.616 28.6029 78.1042 28.6029C80.7738 28.6029 82.7584 30.7736 82.7584 33.449V64.1817C83.1214 65.7769 84.5721 67.2308 86.3451 67.2308C88.1181 67.2308 89.3874 65.7844 89.3874 64.1817V43C89.3874 40.3245 91.5533 38.1538 94.0415 38.1538C96.7111 38.1538 98.6957 40.3245 98.6957 43V76.9231Z" fill="#FFDA58"/>
</svg>
