<svg width="36" height="36" viewBox="0 0 36 36" fill="none" xmlns="http://www.w3.org/2000/svg">
<path d="M17.625 3C14.7325 3 11.9049 3.85774 9.49979 5.46476C7.09472 7.07177 5.2202 9.35589 4.11327 12.0283C3.00634 14.7006 2.71671 17.6412 3.28102 20.4782C3.84533 23.3152 5.23823 25.9211 7.28357 27.9664C9.32891 30.0118 11.9348 31.4047 14.7718 31.969C17.6088 32.5333 20.5494 32.2437 23.2218 31.1367C25.8941 30.0298 28.1782 28.1553 29.7852 25.7502C31.3923 23.3451 32.25 20.5176 32.25 17.625C32.2426 13.7485 30.6993 10.0329 27.9582 7.29177C25.2171 4.55066 21.5015 3.00743 17.625 3ZM23.25 18.75H18.75V23.25C18.75 23.5484 18.6315 23.8345 18.4205 24.0455C18.2095 24.2565 17.9234 24.375 17.625 24.375C17.3266 24.375 17.0405 24.2565 16.8295 24.0455C16.6185 23.8345 16.5 23.5484 16.5 23.25V18.75H12C11.7016 18.75 11.4155 18.6315 11.2045 18.4205C10.9935 18.2095 10.875 17.9234 10.875 17.625C10.875 17.3266 10.9935 17.0405 11.2045 16.8295C11.4155 16.6185 11.7016 16.5 12 16.5H16.5V12C16.5 11.7016 16.6185 11.4155 16.8295 11.2045C17.0405 10.9935 17.3266 10.875 17.625 10.875C17.9234 10.875 18.2095 10.9935 18.4205 11.2045C18.6315 11.4155 18.75 11.7016 18.75 12V16.5H23.25C23.5484 16.5 23.8345 16.6185 24.0455 16.8295C24.2565 17.0405 24.375 17.3266 24.375 17.625C24.375 17.9234 24.2565 18.2095 24.0455 18.4205C23.8345 18.6315 23.5484 18.75 23.25 18.75Z" fill="#1D1D1F"/>
</svg>
