<svg width="36" height="36" viewBox="0 0 36 36" fill="none" xmlns="http://www.w3.org/2000/svg">
<path d="M18 3.375C15.1075 3.375 12.2799 4.23274 9.87479 5.83976C7.46972 7.44677 5.5952 9.73089 4.48827 12.4033C3.38134 15.0756 3.09171 18.0162 3.65602 20.8532C4.22033 23.6902 5.61323 26.2961 7.65857 28.3414C9.70391 30.3868 12.3098 31.7797 15.1468 32.344C17.9838 32.9083 20.9244 32.6187 23.5968 31.5117C26.2691 30.4048 28.5532 28.5303 30.1602 26.1252C31.7673 23.7201 32.625 20.8926 32.625 18C32.6176 14.1235 31.0743 10.4079 28.3332 7.66677C25.5921 4.92566 21.8765 3.38243 18 3.375ZM23.625 19.125H19.125V23.625C19.125 23.9234 19.0065 24.2095 18.7955 24.4205C18.5845 24.6315 18.2984 24.75 18 24.75C17.7016 24.75 17.4155 24.6315 17.2045 24.4205C16.9935 24.2095 16.875 23.9234 16.875 23.625V19.125H12.375C12.0766 19.125 11.7905 19.0065 11.5795 18.7955C11.3685 18.5845 11.25 18.2984 11.25 18C11.25 17.7016 11.3685 17.4155 11.5795 17.2045C11.7905 16.9935 12.0766 16.875 12.375 16.875H16.875V12.375C16.875 12.0766 16.9935 11.7905 17.2045 11.5795C17.4155 11.3685 17.7016 11.25 18 11.25C18.2984 11.25 18.5845 11.3685 18.7955 11.5795C19.0065 11.7905 19.125 12.0766 19.125 12.375V16.875H23.625C23.9234 16.875 24.2095 16.9935 24.4205 17.2045C24.6315 17.4155 24.75 17.7016 24.75 18C24.75 18.2984 24.6315 18.5845 24.4205 18.7955C24.2095 19.0065 23.9234 19.125 23.625 19.125Z" fill="white"/>
</svg>
