<svg width="32" height="32" viewBox="0 0 32 32" fill="none" xmlns="http://www.w3.org/2000/svg">
<path d="M8.87665 0.5C9.14517 0.594531 9.36268 0.746082 9.45869 1.02818C9.6282 1.52934 9.25618 2.03351 8.70563 2.04251C8.2811 2.05002 7.85657 2.04251 7.43203 2.04401C6.71498 2.04401 5.99792 2.03351 5.28087 2.04851C3.48673 2.08453 2.08112 3.48749 2.05112 5.28059C2.03312 6.40746 2.04512 7.53434 2.04662 8.66271C2.04662 8.96131 1.94311 9.20739 1.68809 9.37395C1.27406 9.64404 0.735518 9.46248 0.551004 8.99732C0.534503 8.95681 0.516501 8.9178 0.5 8.87878C0.5 7.58986 0.5 6.30093 0.5 5.012C0.509001 4.97449 0.521002 4.93697 0.525502 4.89946C0.723517 2.77175 2.23263 1.06719 4.32229 0.615538C4.54881 0.566022 4.78133 0.537512 5.01085 0.5H8.87665Z" fill="#1D1D1F" stroke="#1D1D1F" stroke-width="0.64"/>
<path d="M26.9879 0.499878C27.228 0.538881 27.4695 0.568884 27.7066 0.619888C29.7697 1.06243 31.3077 2.82058 31.4743 4.92377C31.4893 5.11878 31.4968 5.3138 31.4983 5.50882C31.4998 6.57841 31.5013 7.64651 31.4983 8.7161C31.4983 9.09563 31.2387 9.40916 30.8786 9.48417C30.532 9.55617 30.1719 9.37616 30.0293 9.03713C29.9783 8.91562 29.9573 8.7731 29.9573 8.63959C29.9513 7.5655 29.9543 6.4914 29.9543 5.41881C29.9543 4.40322 29.5957 3.54064 28.832 2.86409C28.2693 2.36454 27.6031 2.07652 26.8513 2.06001C25.681 2.03301 24.5076 2.04801 23.3373 2.04801C23.0372 2.04801 22.7911 1.9445 22.626 1.68948C22.356 1.27545 22.5375 0.736899 23.0027 0.552383C23.0432 0.535881 23.0822 0.51938 23.1212 0.501378C24.4101 0.501378 25.699 0.501378 26.9879 0.501378V0.499878Z" fill="#1D1D1F" stroke="#1D1D1F" stroke-width="0.64"/>
<path d="M0.5 23.1231C0.594517 22.8546 0.746045 22.6372 1.0296 22.5412C1.53069 22.3717 2.03628 22.7436 2.04379 23.2955C2.05129 23.8219 2.04379 24.3498 2.04529 24.8762C2.04529 25.4911 2.03628 26.106 2.04979 26.7209C2.08729 28.5145 3.49005 29.9182 5.28588 29.9482C6.41259 29.9662 7.5408 29.9527 8.66901 29.9542C9.05458 29.9542 9.35164 30.1582 9.46116 30.4866C9.62319 30.9785 9.25862 31.4914 8.73352 31.4959C7.96238 31.5019 7.19124 31.5004 6.42009 31.4959C5.922 31.4929 5.42241 31.5064 4.92732 31.4689C2.82243 31.31 1.0656 29.7683 0.621522 27.7062C0.570513 27.4692 0.540507 27.2263 0.5015 26.9878V23.1231H0.5Z" fill="#1D1D1F" stroke="#1D1D1F" stroke-width="0.64"/>
<path d="M25.0956 29.9471C25.6367 29.9471 26.1794 29.9576 26.7205 29.9456C28.5042 29.9067 29.9088 28.5059 29.9402 26.7197C29.9597 25.5934 29.9447 24.4656 29.9462 23.3377C29.9462 22.9538 30.1351 22.6659 30.4574 22.5459C30.9281 22.3719 31.4782 22.7123 31.4827 23.2148C31.4917 24.4986 31.5291 25.7838 31.4542 27.0631C31.3343 29.0968 29.8998 30.793 27.9331 31.3104C27.5179 31.4199 27.0787 31.4769 26.65 31.4859C25.5243 31.5099 24.3971 31.4964 23.2699 31.4934C22.9011 31.4934 22.5909 31.2324 22.5159 30.877C22.4425 30.5275 22.6283 30.1586 22.9716 30.0191C23.0855 29.9726 23.2174 29.9546 23.3418 29.9531C23.9264 29.9471 24.5125 29.9501 25.0971 29.9501V29.9471H25.0956Z" fill="#1D1D1F" stroke="#1D1D1F" stroke-width="0.64"/>
<path d="M16.2713 25.4998C13.8348 25.5014 11.939 24.8328 10.3299 23.4495C9.94065 23.1144 9.88853 22.6256 10.2126 22.2752C10.5319 21.9278 11.0726 21.9032 11.4602 22.2352C12.2241 22.8915 13.0807 23.4049 14.0873 23.64C16.4456 24.1949 18.6052 23.8491 20.4652 22.289C20.729 22.0677 21.0092 21.9401 21.361 22.0293C22.0075 22.1922 22.2209 22.953 21.7323 23.388C20.8381 24.1857 19.8088 24.7744 18.6329 25.1279C17.7779 25.3845 16.9016 25.5029 16.2713 25.4998V25.4998Z" fill="#1D1D1F" stroke="#1D1D1F" stroke-width="0.64"/>
<path d="M17.4986 14.8601C17.4986 15.8086 17.5017 16.7571 17.4986 17.7056C17.4956 18.4794 17.2426 19.1315 16.6231 19.5946C16.2628 19.8637 15.8534 19.9823 15.4148 19.9935C15.1665 19.9999 14.9135 20.0095 14.6681 19.9759C14.2603 19.9182 13.9689 19.5129 14.0027 19.0931C14.0364 18.6653 14.3737 18.3256 14.7831 18.3144C14.9579 18.3096 15.1327 18.3144 15.3075 18.3128C15.723 18.308 15.884 18.1398 15.884 17.7008C15.884 15.7669 15.884 13.833 15.884 11.8992C15.884 11.5707 16.0036 11.3096 16.2689 11.1349C16.5296 10.9635 16.8056 10.9539 17.0785 11.1141C17.3591 11.2791 17.4986 11.5371 17.4986 11.8719C17.5017 12.8669 17.4986 13.8635 17.4986 14.8584V14.8601Z" fill="#1D1D1F" stroke="#1D1D1F" stroke-width="0.64"/>
<path d="M8.5 12.9952C8.5 12.6298 8.5 12.2661 8.5 11.9007C8.5 11.5898 8.63228 11.327 8.95294 11.1427C9.53415 10.811 10.3358 11.0867 10.4781 11.6635C10.4841 11.6892 10.4921 11.7148 10.4921 11.7404C10.4921 12.5833 10.5162 13.4278 10.4801 14.2707C10.4621 14.7034 9.99311 15.0046 9.48806 14.9998C8.98701 14.995 8.5501 14.6761 8.52004 14.2451C8.48998 13.83 8.51403 13.4118 8.51403 12.9952H8.502H8.5Z" fill="#1D1D1F" stroke="#1D1D1F" stroke-width="0.64"/>
<path d="M22.0038 12.9903C22.0038 12.5897 21.9948 12.1875 22.0067 11.7869C22.0172 11.4167 22.2741 11.0914 22.5892 11.0177C23.0402 10.9136 23.4763 11.2773 23.4882 11.8061C23.5047 12.6025 23.5032 13.4005 23.4882 14.1986C23.4793 14.6633 23.1313 15.0062 22.7296 14.9998C22.3308 14.9918 22.0142 14.6328 22.0038 14.1633C21.9963 13.7723 22.0023 13.3813 22.0023 12.9903H22.0052H22.0038Z" fill="#1D1D1F" stroke="#1D1D1F" stroke-width="0.64"/>
</svg>
