<svg width="32" height="32" viewBox="0 0 32 32" fill="none" xmlns="http://www.w3.org/2000/svg">
<g clip-path="url(#clip0_76_1382)">
<path d="M15.8019 3.00001C8.84065 3.10626 3.15065 8.76126 2.9994 15.7263C2.94643 18.069 3.53055 20.3821 4.6894 22.4188C4.73492 22.4984 4.80146 22.5639 4.88174 22.6083C4.96202 22.6526 5.05294 22.674 5.14456 22.6701C5.23619 22.6663 5.32498 22.6373 5.40124 22.5863C5.47749 22.5354 5.53826 22.4644 5.5769 22.3813C6.51571 20.3873 7.0011 18.2102 6.99815 16.0063C6.99594 14.6564 7.29839 13.3233 7.88297 12.1066C8.46755 10.8898 9.31918 9.82064 10.3744 8.97876C10.4779 8.89783 10.5963 8.83808 10.7229 8.80292C10.8495 8.76776 10.9818 8.75788 11.1122 8.77384C11.2426 8.7898 11.3686 8.83129 11.483 8.89594C11.5973 8.96059 11.6979 9.04714 11.7788 9.15064C11.8597 9.25413 11.9195 9.37256 11.9546 9.49915C11.9898 9.62574 11.9997 9.75801 11.9837 9.88842C11.9677 10.0188 11.9262 10.1448 11.8616 10.2592C11.7969 10.3736 11.7104 10.4741 11.6069 10.555C10.7911 11.2104 10.1332 12.0408 9.68188 12.9848C9.23052 13.9289 8.99727 14.9624 8.9994 16.0088C9.0027 19.0109 8.20669 21.9598 6.69315 24.5525C6.63705 24.6478 6.6141 24.7589 6.6279 24.8686C6.64169 24.9783 6.69146 25.0804 6.7694 25.1588C7.0194 25.4088 7.28065 25.6588 7.55065 25.8863C7.60599 25.9327 7.67074 25.9667 7.74045 25.9857C7.81016 26.0048 7.88318 26.0085 7.95446 25.9966C8.02575 25.9847 8.09361 25.9575 8.15337 25.9169C8.21314 25.8763 8.26338 25.8232 8.30065 25.7613C9.40725 23.9242 10.1931 21.9121 10.6244 19.8113C10.6773 19.5514 10.8312 19.3231 11.0524 19.1767C11.2736 19.0303 11.5439 18.9778 11.8038 19.0306C12.0637 19.0835 12.292 19.2375 12.4383 19.4587C12.5847 19.6798 12.6373 19.9501 12.5844 20.21C12.1009 22.5805 11.2097 24.8492 9.95065 26.915C9.91514 26.9737 9.8921 27.0392 9.88297 27.1072C9.87384 27.1752 9.87881 27.2444 9.89757 27.3104C9.91633 27.3764 9.94849 27.4379 9.99203 27.4909C10.0356 27.544 10.0896 27.5875 10.1507 27.6188C10.4594 27.775 10.7757 27.92 11.0969 28.0525C11.2078 28.1 11.3322 28.1058 11.4471 28.0689C11.5619 28.0319 11.6595 27.9546 11.7219 27.8513C13.8694 24.2842 15.0026 20.1986 14.9994 16.035C14.9968 15.7783 15.0911 15.5301 15.2635 15.3399C15.4359 15.1496 15.6737 15.0314 15.9294 15.0088C16.0665 14.9991 16.2041 15.0179 16.3336 15.0638C16.4631 15.1097 16.5818 15.1819 16.6822 15.2757C16.7826 15.3695 16.8626 15.4831 16.9172 15.6092C16.9717 15.7353 16.9997 15.8713 16.9994 16.0088C17.0044 20.2599 15.9194 24.4413 13.8482 28.1538C13.8083 28.2249 13.7864 28.3046 13.7844 28.3861C13.7824 28.4676 13.8004 28.5484 13.8367 28.6213C13.8731 28.6943 13.9267 28.7572 13.993 28.8047C14.0593 28.8522 14.1361 28.8828 14.2169 28.8938C14.5961 28.9463 14.9798 28.9821 15.3682 29.0013C15.4615 29.0047 15.554 28.982 15.635 28.9356C15.7161 28.8892 15.7826 28.821 15.8269 28.7388C17.9058 24.8501 18.9954 20.5095 18.9994 16.1C19.0057 14.4438 17.7119 13.0388 16.0569 13.0075C15.6588 12.9999 15.2631 13.0716 14.8929 13.2185C14.5228 13.3653 14.1856 13.5844 13.901 13.863C13.6164 14.1415 13.3901 14.4739 13.2353 14.8408C13.0805 15.2077 13.0003 15.6018 12.9994 16C12.9976 16.2497 12.9035 16.49 12.7353 16.6746C12.5671 16.8591 12.3366 16.975 12.0882 17C11.9496 17.0124 11.8099 16.9957 11.6782 16.951C11.5464 16.9063 11.4254 16.8346 11.3229 16.7404C11.2205 16.6463 11.1388 16.5319 11.0831 16.4044C11.0273 16.2769 10.9989 16.1391 10.9994 16C10.9994 15.339 11.1304 14.6845 11.385 14.0744C11.6395 13.4643 12.0125 12.9108 12.4824 12.4458C12.9522 11.9808 13.5097 11.6136 14.1224 11.3654C14.7351 11.1173 15.3909 10.9931 16.0519 11C18.8019 11.0288 21.0119 13.3963 20.9982 16.145C20.986 20.2222 20.1118 24.2507 18.4332 27.9663C18.395 28.0518 18.3817 28.1464 18.3947 28.2392C18.4077 28.332 18.4465 28.4193 18.5067 28.4911C18.5669 28.5629 18.6461 28.6163 18.7352 28.6453C18.8243 28.6743 18.9197 28.6777 19.0107 28.655C19.4443 28.5522 19.8724 28.427 20.2932 28.28C20.3587 28.2567 20.4187 28.22 20.4693 28.1723C20.5199 28.1245 20.5599 28.0667 20.5869 28.0025C21.169 26.623 21.6486 25.2025 22.0219 23.7525C22.0547 23.6253 22.1123 23.5058 22.1913 23.4008C22.2703 23.2958 22.3692 23.2075 22.4824 23.1407C22.5956 23.074 22.7208 23.0302 22.8509 23.0118C22.981 22.9935 23.1134 23.0009 23.2407 23.0338C23.3679 23.0666 23.4874 23.1242 23.5923 23.2032C23.6973 23.2822 23.7857 23.3811 23.8524 23.4943C23.9192 23.6075 23.963 23.7327 23.9813 23.8628C23.9997 23.9929 23.9922 24.1253 23.9594 24.2525C23.8661 24.6167 23.7661 24.9792 23.6594 25.34C23.628 25.4439 23.6313 25.5552 23.6687 25.6571C23.7061 25.7589 23.7757 25.8459 23.8669 25.9047C23.958 25.9636 24.0659 25.9912 24.1742 25.9833C24.2824 25.9755 24.3852 25.9326 24.4669 25.8613C26.494 24.1206 27.9355 21.7975 28.5953 19.2083C29.255 16.6191 29.1009 13.8895 28.1539 11.3911C27.2069 8.89258 25.513 6.74658 23.3028 5.24514C21.0927 3.7437 18.4735 2.95976 15.8019 3.00001ZM24.7494 20.135C24.719 20.3763 24.6017 20.5982 24.4195 20.7593C24.2373 20.9204 24.0026 21.0095 23.7594 21.01C23.7176 21.01 23.6759 21.0075 23.6344 21.0025C23.5041 20.9863 23.3782 20.9445 23.264 20.8797C23.1498 20.8148 23.0495 20.728 22.9688 20.6244C22.8881 20.5207 22.8286 20.4022 22.7938 20.2755C22.7589 20.1489 22.7494 20.0166 22.7657 19.8863C22.9251 18.6007 23.0052 17.3066 23.0057 16.0113C23.003 14.1556 22.2647 12.3766 20.9525 11.0644C19.6403 9.75225 17.8614 9.01391 16.0057 9.01126C15.7132 9.01113 15.4209 9.02908 15.1307 9.06501C14.8673 9.09816 14.6015 9.02532 14.3918 8.86252C14.1821 8.69971 14.0457 8.46028 14.0125 8.19689C13.9794 7.93349 14.0522 7.66772 14.215 7.45803C14.3778 7.24834 14.6173 7.11191 14.8807 7.07876C16.1477 6.92115 17.4338 7.03457 18.6538 7.41151C19.8737 7.78845 20.9996 8.42031 21.9569 9.26522C22.9142 10.1101 23.6811 11.1488 24.2067 12.3125C24.7323 13.4761 25.0046 14.7382 25.0057 16.015C25.0054 17.3923 24.9198 18.7683 24.7494 20.135Z" fill="#1D1D1F"/>
</g>
<defs>
<clipPath id="clip0_76_1382">
<rect width="32" height="32" fill="white"/>
</clipPath>
</defs>
</svg>
