<svg width="64" height="82" viewBox="0 0 64 82" fill="none" xmlns="http://www.w3.org/2000/svg">
<path d="M31.9999 43.8929C29.6985 43.8929 27.4487 43.2142 25.5351 41.9427C23.6215 40.6712 22.1301 38.864 21.2494 36.7496C20.3686 34.6352 20.1382 32.3086 20.5872 30.064C21.0362 27.8193 22.1444 25.7575 23.7718 24.1392C25.3992 22.5209 27.4726 21.4188 29.7298 20.9723C31.987 20.5259 34.3267 20.755 36.453 21.6308C38.5792 22.5066 40.3966 23.9898 41.6752 25.8927C42.9538 27.7956 43.6363 30.0328 43.6363 32.3214C43.6324 35.3892 42.4052 38.3302 40.2238 40.4994C38.0424 42.6687 35.0849 43.889 31.9999 43.8929Z" fill="#FFE700"/>
<path d="M32 0.5C23.5162 0.509953 15.3827 3.86575 9.38366 9.83127C3.38467 15.7968 0.0100427 23.8849 3.40447e-05 32.3214C-0.0101271 39.2158 2.25452 45.923 6.44657 51.4143C6.44657 51.4143 7.3193 52.557 7.46184 52.7219L24.3905 72.5757C28.383 77.258 35.6169 77.258 39.6094 72.5756L56.5498 52.7074C56.6778 52.5541 57.5534 51.4143 57.5534 51.4143L57.5563 51.4056C61.7463 45.9167 64.0099 39.2126 64 32.3214C63.99 23.8849 60.6153 15.7968 54.6163 9.83127C48.6173 3.86575 40.4838 0.509953 32 0.5ZM32 43.8929C29.6985 43.8929 27.4488 43.2142 25.5352 41.9427C23.6216 40.6712 22.1301 38.864 21.2494 36.7496C20.3687 34.6352 20.1382 32.3086 20.5872 30.064C21.0362 27.8193 22.1445 25.7575 23.7719 24.1392C25.3992 22.5209 27.4726 21.4188 29.7299 20.9723C31.9871 20.5259 34.3268 20.755 36.453 21.6308C38.5793 22.5066 40.3967 23.9898 41.6753 25.8927C42.9539 27.7956 43.6364 30.0328 43.6364 32.3214C43.6325 35.3892 42.4053 38.3302 40.2239 40.4994C38.0425 42.6687 35.085 43.889 32 43.8929Z" fill="#00A6C8"/>
</svg>
