<svg width="75" height="12" viewBox="0 0 75 12" fill="none" xmlns="http://www.w3.org/2000/svg">
    <g clip-path="url(#clip0_2823_4581)">
        <path
            d="M0.125 11.6499H3.875C4.375 11.6499 4.875 11.5999 5.325 11.4499C6.6 11.0499 7.55 10.0749 7.55 8.6249C7.55 7.8999 7.25 7.1749 6.45 6.8749V6.8499C7.35 6.3999 7.875 5.5249 7.875 4.6999C7.875 3.7749 7.35 3.0499 6.425 2.7249C5.975 2.5749 5.425 2.5249 4.825 2.5249H1.9C1.9 2.5249 0.125 11.6499 0.125 11.6499ZM3.45 6.0749L3.775 4.4499H4.9C5.4 4.4499 5.6 4.6999 5.6 5.0499C5.6 5.5499 5.25 6.0749 4.625 6.0749H3.45ZM2.725 9.7499L3.1 7.8499H4.45C5 7.8499 5.25 8.1499 5.25 8.5749C5.25 8.9749 5.025 9.3749 4.675 9.5999C4.5 9.6999 4.3 9.7499 4.05 9.7499C4.075 9.7499 2.725 9.7499 2.725 9.7499Z"
            fill="#A4240D" />
        <path
            d="M7.375 11.6499H9.75L10.675 9.7249H13.525L13.725 11.6499H15.95L14.7 2.5249H12.125L7.375 11.6499ZM11.55 7.9499L12.425 6.1749C12.7 5.5999 13.075 4.5999 13.075 4.5999H13.1C13.1 4.5999 13.125 5.5999 13.175 6.1749L13.35 7.9499H11.55ZM12.575 1.9499H14.375L16.25 0.0249023H14L12.575 1.9499Z"
            fill="#A4240D" />
        <path d="M16.8501 11.6499H19.0751L20.8501 2.5249H18.6251L16.8501 11.6499Z" fill="#A4240D" />
        <path
            d="M21.375 7.77485C21.375 10.3499 23.325 11.7999 25.325 11.7999C26.175 11.7999 27.025 11.5249 27.55 10.9999H27.575C27.575 10.9999 27.525 11.1999 27.5 11.3749L27.45 11.6249H29.325L30.325 6.47485H27.05L26.675 8.37485H27.975L27.825 9.07485C27.275 9.44985 26.525 9.74985 25.85 9.74985C24.7 9.74985 23.7 9.07485 23.7 7.59985C23.7 6.07485 24.75 4.39985 26.925 4.39985C27.725 4.39985 28.625 4.67485 29.1 5.07485L30.4 3.52485C29.5 2.69985 28.075 2.34985 26.9 2.34985C23.725 2.37485 21.375 4.84985 21.375 7.77485Z"
            fill="#A4240D" />
        <path
            d="M30.8999 11.6499H36.7999L37.1749 9.7249H33.4999L33.8249 7.9999H36.5999L36.9749 6.0999H34.1999L34.5249 4.4499H37.9999L38.3749 2.5249H32.6749L30.8999 11.6499Z"
            fill="#A4240D" />
        <path
            d="M38.2251 11.6499H40.4501L41.2751 7.3999C41.4001 6.8249 41.4751 5.8499 41.4751 5.8499H41.5001C41.5001 5.8499 41.7251 6.7999 41.9751 7.3999L43.6751 11.6499H45.8251L47.6001 2.5249H45.3751L44.5501 6.7749C44.4251 7.3499 44.3501 8.3249 44.3501 8.3249H44.3251C44.3251 8.3249 44.1001 7.3749 43.8751 6.7749L42.1751 2.5249H40.0001L38.2251 11.6499Z"
            fill="#282828" />
        <path
            d="M47.7998 11.6499H53.6998L54.0748 9.7249H50.4248L50.7498 7.9999H53.4998L53.8748 6.0999H51.0998L51.4248 4.4499H54.8998L55.2748 2.5249H49.5748L47.7998 11.6499Z"
            fill="#282828" />
        <path
            d="M56.5999 11.6499H59.1749L61.2249 7.0499C61.4749 6.4749 61.6249 5.9749 61.6249 5.9749H61.6499C61.6249 6.3249 61.6249 6.6999 61.6249 7.0499L61.8749 11.6499H64.4749L68.4749 2.5249H66.0249L63.7499 8.2249C63.5499 8.7249 63.4499 9.1749 63.4499 9.1749H63.4249C63.4249 9.1749 63.4749 8.6499 63.4499 8.2249L63.1749 2.5249H61.3249L58.8249 8.2249C58.5749 8.7999 58.4999 9.1749 58.4999 9.1749H58.4749C58.4749 9.1749 58.4999 8.7749 58.4999 8.2249L58.3499 2.5249H56.0249L56.5999 11.6499Z"
            fill="#282828" />
        <path
            d="M67.4502 10.5C68.2502 11.4 69.6752 11.8 70.9002 11.8C72.8752 11.8 74.3002 10.5 74.3002 8.95C74.3002 6.375 70.8752 6.225 70.8752 5.225C70.8752 4.675 71.5502 4.425 72.0002 4.425C72.7502 4.425 73.5252 4.725 73.9502 5.075L75.1502 3.425C74.3252 2.675 73.1752 2.375 72.0252 2.375C70.3252 2.375 68.6252 3.425 68.6252 5.225C68.6252 7.75 72.0252 8 72.0252 8.95C72.0252 9.575 71.3752 9.75 70.9252 9.75C70.1252 9.75 69.2752 9.4 68.7752 8.925L67.4502 10.5Z"
            fill="#282828" />
    </g>
    <defs>
        <clipPath id="clip0_2823_4581">
            <rect width="75" height="12" fill="white" />
        </clipPath>
    </defs>
</svg>