<svg width="121" height="40" viewBox="0 0 121 40" fill="none" xmlns="http://www.w3.org/2000/svg">
<g clip-path="url(#clip0_2823_4537)">
<path d="M50.7838 16.8C50.6666 16.8 50.5706 16.7627 50.4958 16.688C50.421 16.6133 50.3838 16.5173 50.3838 16.4V6C50.3838 5.88268 50.421 5.78668 50.4958 5.712C50.5706 5.63732 50.6666 5.6 50.7838 5.6H54.7998C55.8666 5.6 56.757 5.77068 57.4718 6.112C58.1866 6.44268 58.7306 6.93332 59.1038 7.584C59.4878 8.224 59.6906 9.01868 59.7118 9.968C59.7226 10.4373 59.7278 10.848 59.7278 11.2C59.7278 11.552 59.7226 11.9573 59.7118 12.416C59.6798 13.408 59.4826 14.2293 59.1198 14.88C58.757 15.5307 58.2238 16.016 57.5198 16.336C56.8158 16.6453 55.9358 16.8 54.8798 16.8H50.7838ZM52.9278 14.736H54.7998C55.333 14.736 55.7706 14.656 56.1118 14.496C56.453 14.336 56.7038 14.0853 56.8638 13.744C57.0346 13.392 57.125 12.9387 57.1358 12.384C57.1466 12.0747 57.1518 11.7973 57.1518 11.552C57.1626 11.3067 57.1626 11.0613 57.1518 10.816C57.1518 10.5707 57.1466 10.2987 57.1358 10C57.1146 9.2 56.9066 8.61332 56.5118 8.24C56.1278 7.856 55.5306 7.664 54.7198 7.664H52.9278V14.736ZM61.9354 16.8C61.829 16.8 61.7382 16.7627 61.6634 16.688C61.589 16.6133 61.5514 16.5173 61.5514 16.4V8.88C61.5514 8.76268 61.589 8.66668 61.6634 8.592C61.7382 8.51732 61.829 8.48 61.9354 8.48H63.5354C63.653 8.48 63.749 8.51732 63.8234 8.592C63.8982 8.66668 63.9354 8.76268 63.9354 8.88V16.4C63.9354 16.5173 63.8982 16.6133 63.8234 16.688C63.749 16.7627 63.653 16.8 63.5354 16.8H61.9354ZM61.8874 7.2C61.781 7.2 61.6902 7.16268 61.6154 7.088C61.541 7.01332 61.5034 6.91732 61.5034 6.8V5.52C61.5034 5.40268 61.541 5.30668 61.6154 5.232C61.6902 5.14668 61.781 5.104 61.8874 5.104H63.5674C63.685 5.104 63.781 5.14668 63.8554 5.232C63.941 5.30668 63.9834 5.40268 63.9834 5.52V6.8C63.9834 6.91732 63.941 7.01332 63.8554 7.088C63.781 7.16268 63.685 7.2 63.5674 7.2H61.8874ZM69.8462 20.32C69.057 20.32 68.401 20.2133 67.8782 20C67.3554 19.7973 66.9394 19.5467 66.6302 19.248C66.3314 18.96 66.1182 18.672 65.9902 18.384C65.8622 18.096 65.793 17.872 65.7822 17.712C65.7714 17.5947 65.809 17.4987 65.8942 17.424C65.9794 17.3493 66.0754 17.312 66.1822 17.312H67.8942C67.9902 17.312 68.0702 17.3333 68.1342 17.376C68.209 17.4293 68.2674 17.5147 68.3102 17.632C68.3634 17.76 68.4382 17.8933 68.5342 18.032C68.6302 18.1813 68.7742 18.304 68.9662 18.4C69.169 18.496 69.4354 18.544 69.7662 18.544C70.1394 18.544 70.449 18.4907 70.6942 18.384C70.9394 18.2773 71.121 18.096 71.2382 17.84C71.3662 17.584 71.4302 17.2373 71.4302 16.8V15.728C71.1742 16.0053 70.849 16.2347 70.4542 16.416C70.0702 16.5973 69.5954 16.688 69.0302 16.688C68.4754 16.688 67.985 16.6027 67.5582 16.432C67.1422 16.2507 66.7954 16 66.5182 15.68C66.241 15.3493 66.0274 14.9547 65.8782 14.496C65.729 14.0373 65.6434 13.52 65.6222 12.944C65.6114 12.656 65.6114 12.3733 65.6222 12.096C65.6434 11.5413 65.729 11.0347 65.8782 10.576C66.0274 10.1173 66.241 9.72268 66.5182 9.392C66.7954 9.05068 67.1422 8.78932 67.5582 8.608C67.985 8.416 68.4754 8.32 69.0302 8.32C69.617 8.32 70.1182 8.432 70.5342 8.656C70.9502 8.88 71.2914 9.15732 71.5582 9.488V8.88C71.5582 8.77332 71.5954 8.68268 71.6702 8.608C71.745 8.52268 71.8354 8.48 71.9422 8.48H73.5102C73.617 8.48 73.7074 8.52268 73.7822 8.608C73.8674 8.68268 73.9102 8.77332 73.9102 8.88L73.9262 16.576C73.9262 17.376 73.7714 18.0533 73.4622 18.608C73.153 19.1627 72.6942 19.584 72.0862 19.872C71.489 20.1707 70.7422 20.32 69.8462 20.32ZM69.7662 14.816C70.1502 14.816 70.4594 14.7307 70.6942 14.56C70.9394 14.3787 71.121 14.1547 71.2382 13.888C71.3554 13.6107 71.4194 13.3227 71.4302 13.024C71.441 12.9067 71.4462 12.7413 71.4462 12.528C71.4462 12.304 71.441 12.1333 71.4302 12.016C71.4194 11.7173 71.3554 11.4347 71.2382 11.168C71.121 10.8907 70.9394 10.6667 70.6942 10.496C70.4594 10.3253 70.1502 10.24 69.7662 10.24C69.361 10.24 69.041 10.3307 68.8062 10.512C68.5714 10.6827 68.401 10.912 68.2942 11.2C68.1874 11.488 68.1234 11.8027 68.1022 12.144C68.0914 12.4 68.0914 12.6507 68.1022 12.896C68.1234 13.248 68.1874 13.568 68.2942 13.856C68.401 14.144 68.5714 14.3787 68.8062 14.56C69.041 14.7307 69.361 14.816 69.7662 14.816ZM76.3262 16.8C76.2194 16.8 76.129 16.7627 76.0542 16.688C75.9794 16.6133 75.9422 16.5173 75.9422 16.4V8.88C75.9422 8.76268 75.9794 8.66668 76.0542 8.592C76.129 8.51732 76.2194 8.48 76.3262 8.48H77.9262C78.0434 8.48 78.1394 8.51732 78.2142 8.592C78.289 8.66668 78.3262 8.76268 78.3262 8.88V16.4C78.3262 16.5173 78.289 16.6133 78.2142 16.688C78.1394 16.7627 78.0434 16.8 77.9262 16.8H76.3262ZM76.2782 7.2C76.1714 7.2 76.081 7.16268 76.0062 7.088C75.9314 7.01332 75.8942 6.91732 75.8942 6.8V5.52C75.8942 5.40268 75.9314 5.30668 76.0062 5.232C76.081 5.14668 76.1714 5.104 76.2782 5.104H77.9582C78.0754 5.104 78.1714 5.14668 78.2462 5.232C78.3314 5.30668 78.3742 5.40268 78.3742 5.52V6.8C78.3742 6.91732 78.3314 7.01332 78.2462 7.088C78.1714 7.16268 78.0754 7.2 77.9582 7.2H76.2782ZM84.333 16.8C83.6714 16.8 83.1062 16.6933 82.637 16.48C82.1674 16.256 81.8102 15.9147 81.565 15.456C81.3302 14.9973 81.213 14.4213 81.213 13.728V10.368H79.965C79.8474 10.368 79.7514 10.3307 79.677 10.256C79.6022 10.1813 79.565 10.0853 79.565 9.968V8.88C79.565 8.76268 79.6022 8.66668 79.677 8.592C79.7514 8.51732 79.8474 8.48 79.965 8.48H81.213V5.84C81.213 5.72268 81.2502 5.62668 81.3246 5.552C81.4102 5.47732 81.5062 5.44 81.613 5.44H83.181C83.2982 5.44 83.3942 5.47732 83.469 5.552C83.5434 5.62668 83.581 5.72268 83.581 5.84V8.48H85.581C85.6874 8.48 85.7782 8.51732 85.853 8.592C85.9274 8.66668 85.965 8.76268 85.965 8.88V9.968C85.965 10.0853 85.9274 10.1813 85.853 10.256C85.7782 10.3307 85.6874 10.368 85.581 10.368H83.581V13.536C83.581 13.9413 83.6502 14.2613 83.789 14.496C83.9382 14.72 84.1942 14.832 84.557 14.832H85.725C85.8314 14.832 85.9222 14.8693 85.997 14.944C86.0714 15.0187 86.109 15.1093 86.109 15.216V16.4C86.109 16.5173 86.0714 16.6133 85.997 16.688C85.9222 16.7627 85.8314 16.8 85.725 16.8H84.333ZM89.9526 16.96C89.3874 16.96 88.8806 16.8533 88.4326 16.64C87.9846 16.416 87.6274 16.1173 87.3606 15.744C87.0942 15.3707 86.9606 14.9547 86.9606 14.496C86.9606 13.7387 87.2646 13.1413 87.8726 12.704C88.4914 12.2667 89.3022 11.968 90.3046 11.808L92.4006 11.504V11.216C92.4006 10.8 92.3046 10.48 92.1126 10.256C91.9206 10.032 91.5846 9.92 91.1046 9.92C90.7526 9.92 90.4702 9.98932 90.2566 10.128C90.0434 10.2667 89.8782 10.448 89.7606 10.672C89.6754 10.8107 89.5526 10.88 89.3926 10.88H87.8726C87.7554 10.88 87.6646 10.848 87.6006 10.784C87.5366 10.7093 87.5102 10.624 87.5206 10.528C87.5206 10.3467 87.5902 10.1333 87.7286 9.888C87.8674 9.64268 88.0806 9.40268 88.3686 9.168C88.6566 8.92268 89.0246 8.72 89.4726 8.56C89.9206 8.4 90.4702 8.32 91.1206 8.32C91.7926 8.32 92.3686 8.4 92.8486 8.56C93.3286 8.72 93.7126 8.944 94.0006 9.232C94.2886 9.52 94.5022 9.856 94.6406 10.24C94.7794 10.6133 94.8486 11.0187 94.8486 11.456V16.4C94.8486 16.5173 94.8114 16.6133 94.7366 16.688C94.6622 16.7627 94.5662 16.8 94.4486 16.8H92.8806C92.7742 16.8 92.6834 16.7627 92.6086 16.688C92.5342 16.6133 92.4966 16.5173 92.4966 16.4V15.808C92.3582 16.0107 92.1714 16.2027 91.9366 16.384C91.7022 16.5547 91.4194 16.6933 91.0886 16.8C90.7686 16.9067 90.3902 16.96 89.9526 16.96ZM90.5926 15.296C90.9446 15.296 91.2594 15.2213 91.5366 15.072C91.8142 14.9227 92.0326 14.6933 92.1926 14.384C92.3526 14.0747 92.4326 13.6853 92.4326 13.216V12.944L90.9446 13.184C90.3686 13.28 89.9474 13.424 89.6806 13.616C89.4142 13.808 89.2806 14.0427 89.2806 14.32C89.2806 14.5227 89.3394 14.6987 89.4566 14.848C89.5846 14.9973 89.7502 15.1093 89.9526 15.184C90.1554 15.2587 90.3686 15.296 90.5926 15.296ZM97.1858 16.8C97.0686 16.8 96.9726 16.7627 96.8978 16.688C96.8234 16.6133 96.7858 16.5173 96.7858 16.4V5.84C96.7858 5.72268 96.8234 5.62668 96.8978 5.552C96.9726 5.47732 97.0686 5.44 97.1858 5.44H98.7858C98.8926 5.44 98.9834 5.47732 99.0578 5.552C99.1326 5.62668 99.1698 5.72268 99.1698 5.84V16.4C99.1698 16.5173 99.1326 16.6133 99.0578 16.688C98.9834 16.7627 98.8926 16.8 98.7858 16.8H97.1858Z" fill="#111111"/>
<path d="M50.7838 34C50.6666 34 50.5706 33.9626 50.4958 33.888C50.421 33.8133 50.3838 33.7173 50.3838 33.6V23.2C50.3838 23.0826 50.421 22.9866 50.4958 22.912C50.5706 22.8373 50.6666 22.8 50.7838 22.8H55.5358C56.421 22.8 57.1466 22.928 57.7118 23.184C58.277 23.44 58.693 23.8026 58.9598 24.272C59.237 24.7413 59.3758 25.2906 59.3758 25.92C59.3758 26.3146 59.301 26.6613 59.1518 26.96C59.013 27.2586 58.837 27.504 58.6238 27.696C58.421 27.888 58.2238 28.032 58.0318 28.128C58.4478 28.32 58.8106 28.64 59.1198 29.088C59.4398 29.5253 59.5998 30.048 59.5998 30.656C59.5998 31.328 59.4506 31.9146 59.1518 32.416C58.853 32.9173 58.4106 33.3066 57.8238 33.584C57.237 33.8613 56.5226 34 55.6798 34H50.7838ZM52.9278 32.128H55.3758C55.8986 32.128 56.293 31.984 56.5598 31.696C56.8266 31.3973 56.9598 31.0453 56.9598 30.64C56.9598 30.224 56.821 29.8773 56.5438 29.6C56.277 29.312 55.8878 29.168 55.3758 29.168H52.9278V32.128ZM52.9278 27.328H55.2318C55.733 27.328 56.1066 27.2053 56.3518 26.96C56.6078 26.704 56.7358 26.3786 56.7358 25.984C56.7358 25.5893 56.6078 25.2746 56.3518 25.04C56.1066 24.7946 55.733 24.672 55.2318 24.672H52.9278V27.328ZM64.389 34.16C63.7702 34.16 63.221 34.0213 62.741 33.744C62.2714 33.456 61.9034 33.0453 61.637 32.512C61.381 31.968 61.253 31.312 61.253 30.544V26.08C61.253 25.9626 61.2902 25.8666 61.365 25.792C61.4394 25.7173 61.5302 25.68 61.637 25.68H63.333C63.4502 25.68 63.5462 25.7173 63.621 25.792C63.6954 25.8666 63.733 25.9626 63.733 26.08V30.448C63.733 31.6426 64.2554 32.24 65.301 32.24C65.8022 32.24 66.197 32.0853 66.485 31.776C66.7834 31.456 66.933 31.0133 66.933 30.448V26.08C66.933 25.9626 66.9702 25.8666 67.045 25.792C67.1194 25.7173 67.2154 25.68 67.333 25.68H69.029C69.1354 25.68 69.2262 25.7173 69.301 25.792C69.3754 25.8666 69.413 25.9626 69.413 26.08V33.6C69.413 33.7173 69.3754 33.8133 69.301 33.888C69.2262 33.9626 69.1354 34 69.029 34H67.461C67.3434 34 67.2474 33.9626 67.173 33.888C67.0982 33.8133 67.061 33.7173 67.061 33.6V32.976C66.7834 33.36 66.4262 33.6533 65.989 33.856C65.5514 34.0586 65.0182 34.16 64.389 34.16ZM74.7066 34.16C74.0454 34.16 73.4746 34.0853 72.9946 33.936C72.5254 33.776 72.1414 33.584 71.8426 33.36C71.5546 33.136 71.3358 32.912 71.1866 32.688C71.0478 32.4533 70.9734 32.256 70.9626 32.096C70.9518 31.9786 70.9894 31.8826 71.0746 31.808C71.1598 31.7333 71.2454 31.696 71.3306 31.696H72.8826C72.9146 31.696 72.9466 31.7013 72.9786 31.712C73.0106 31.7226 73.0426 31.7493 73.0746 31.792C73.2134 31.888 73.3574 32 73.5066 32.128C73.6558 32.2453 73.8266 32.3466 74.0186 32.432C74.2214 32.5173 74.4718 32.56 74.7706 32.56C75.1226 32.56 75.4214 32.4906 75.6666 32.352C75.9118 32.2026 76.0346 31.9946 76.0346 31.728C76.0346 31.536 75.9758 31.376 75.8586 31.248C75.7518 31.12 75.5438 31.0026 75.2346 30.896C74.9254 30.7893 74.4666 30.672 73.8586 30.544C73.2826 30.416 72.7918 30.2453 72.3866 30.032C71.9814 29.8186 71.6774 29.552 71.4746 29.232C71.2718 28.9013 71.1706 28.5066 71.1706 28.048C71.1706 27.632 71.2986 27.232 71.5546 26.848C71.8214 26.464 72.2106 26.1493 72.7226 25.904C73.2346 25.648 73.8746 25.52 74.6426 25.52C75.2294 25.52 75.7414 25.5946 76.1786 25.744C76.6266 25.8826 76.9998 26.064 77.2986 26.288C77.5974 26.5013 77.8214 26.7253 77.9706 26.96C78.1306 27.184 78.2158 27.3813 78.2266 27.552C78.2374 27.6586 78.2054 27.7493 78.1306 27.824C78.0558 27.8986 77.9706 27.936 77.8746 27.936H76.4506C76.3974 27.936 76.3494 27.9306 76.3066 27.92C76.2638 27.8986 76.2266 27.872 76.1946 27.84C76.0666 27.7546 75.9334 27.6586 75.7946 27.552C75.6666 27.4346 75.5118 27.3333 75.3306 27.248C75.1494 27.1626 74.9146 27.12 74.6266 27.12C74.2746 27.12 74.0026 27.2 73.8106 27.36C73.6294 27.5093 73.5386 27.7013 73.5386 27.936C73.5386 28.0853 73.5866 28.224 73.6826 28.352C73.7786 28.48 73.9758 28.5973 74.2746 28.704C74.5734 28.8106 75.0266 28.9226 75.6346 29.04C76.3598 29.168 76.9358 29.36 77.3626 29.616C77.7894 29.872 78.0934 30.1706 78.2746 30.512C78.4666 30.8426 78.5626 31.2 78.5626 31.584C78.5626 32.0853 78.4134 32.5333 78.1146 32.928C77.8158 33.312 77.3786 33.616 76.8026 33.84C76.2374 34.0533 75.5386 34.16 74.7066 34.16ZM80.4826 34C80.3758 34 80.285 33.9626 80.2106 33.888C80.1358 33.8133 80.0986 33.7173 80.0986 33.6V26.08C80.0986 25.9626 80.1358 25.8666 80.2106 25.792C80.285 25.7173 80.3758 25.68 80.4826 25.68H82.0826C82.1998 25.68 82.2958 25.7173 82.3706 25.792C82.445 25.8666 82.4826 25.9626 82.4826 26.08V33.6C82.4826 33.7173 82.445 33.8133 82.3706 33.888C82.2958 33.9626 82.1998 34 82.0826 34H80.4826ZM80.4346 24.4C80.3278 24.4 80.237 24.3626 80.1626 24.288C80.0878 24.2133 80.0506 24.1173 80.0506 24V22.72C80.0506 22.6026 80.0878 22.5066 80.1626 22.432C80.237 22.3466 80.3278 22.304 80.4346 22.304H82.1146C82.2318 22.304 82.3278 22.3466 82.4026 22.432C82.4878 22.5066 82.5306 22.6026 82.5306 22.72V24C82.5306 24.1173 82.4878 24.2133 82.4026 24.288C82.3278 24.3626 82.2318 24.4 82.1146 24.4H80.4346ZM85.2794 34C85.1726 34 85.0818 33.9626 85.0074 33.888C84.9326 33.8133 84.8954 33.7173 84.8954 33.6V26.08C84.8954 25.9626 84.9326 25.8666 85.0074 25.792C85.0818 25.7173 85.1726 25.68 85.2794 25.68H86.8474C86.9646 25.68 87.0606 25.7173 87.1354 25.792C87.2098 25.8666 87.2474 25.9626 87.2474 26.08V26.704C87.5246 26.3626 87.8818 26.08 88.3194 25.856C88.7566 25.632 89.2898 25.52 89.9194 25.52C90.5486 25.52 91.0978 25.664 91.5674 25.952C92.0474 26.2293 92.4206 26.64 92.6874 27.184C92.9646 27.7173 93.1034 28.368 93.1034 29.136V33.6C93.1034 33.7173 93.0606 33.8133 92.9754 33.888C92.9006 33.9626 92.8098 34 92.7034 34H91.0074C90.8898 34 90.7938 33.9626 90.7194 33.888C90.6446 33.8133 90.6074 33.7173 90.6074 33.6V29.232C90.6074 28.6666 90.4686 28.2293 90.1914 27.92C89.9246 27.6 89.5298 27.44 89.0074 27.44C88.5058 27.44 88.1058 27.6 87.8074 27.92C87.5086 28.2293 87.3594 28.6666 87.3594 29.232V33.6C87.3594 33.7173 87.3218 33.8133 87.2474 33.888C87.1726 33.9626 87.0818 34 86.9754 34H85.2794ZM98.7322 34.16C97.5058 34.16 96.5298 33.8186 95.8042 33.136C95.0898 32.4533 94.711 31.4613 94.6682 30.16C94.6682 30.0746 94.6682 29.9626 94.6682 29.824C94.6682 29.6746 94.6682 29.5573 94.6682 29.472C94.711 28.6506 94.8978 27.9466 95.2282 27.36C95.559 26.7626 96.023 26.3093 96.6202 26C97.2178 25.68 97.9162 25.52 98.7162 25.52C99.6122 25.52 100.359 25.7066 100.956 26.08C101.564 26.4426 102.018 26.944 102.316 27.584C102.626 28.2133 102.78 28.9386 102.78 29.76V30.128C102.78 30.2346 102.738 30.3253 102.652 30.4C102.578 30.4746 102.487 30.512 102.38 30.512H97.1482C97.1482 30.5226 97.1482 30.544 97.1482 30.576C97.1482 30.5973 97.1482 30.6186 97.1482 30.64C97.159 30.9813 97.223 31.296 97.3402 31.584C97.4682 31.8613 97.6442 32.0853 97.8682 32.256C98.103 32.4266 98.3802 32.512 98.7002 32.512C98.967 32.512 99.1858 32.4746 99.3562 32.4C99.527 32.3253 99.6658 32.2346 99.7722 32.128C99.8898 32.0213 99.975 31.9306 100.028 31.856C100.124 31.7493 100.199 31.6853 100.252 31.664C100.316 31.632 100.412 31.616 100.54 31.616H102.204C102.311 31.616 102.396 31.648 102.46 31.712C102.535 31.7653 102.567 31.8453 102.556 31.952C102.546 32.1226 102.455 32.336 102.284 32.592C102.124 32.8373 101.884 33.0826 101.564 33.328C101.244 33.5626 100.844 33.76 100.364 33.92C99.895 34.08 99.351 34.16 98.7322 34.16ZM97.1482 29.056H100.284V29.024C100.284 28.64 100.22 28.3093 100.092 28.032C99.975 27.744 99.799 27.52 99.5642 27.36C99.3298 27.2 99.047 27.12 98.7162 27.12C98.3858 27.12 98.103 27.2 97.8682 27.36C97.6338 27.52 97.4522 27.744 97.3242 28.032C97.207 28.3093 97.1482 28.64 97.1482 29.024V29.056ZM107.66 34.16C106.998 34.16 106.428 34.0853 105.948 33.936C105.478 33.776 105.094 33.584 104.796 33.36C104.508 33.136 104.289 32.912 104.14 32.688C104.001 32.4533 103.926 32.256 103.916 32.096C103.905 31.9786 103.942 31.8826 104.028 31.808C104.113 31.7333 104.198 31.696 104.284 31.696H105.836C105.868 31.696 105.9 31.7013 105.932 31.712C105.964 31.7226 105.996 31.7493 106.028 31.792C106.166 31.888 106.31 32 106.46 32.128C106.609 32.2453 106.78 32.3466 106.972 32.432C107.174 32.5173 107.425 32.56 107.724 32.56C108.076 32.56 108.374 32.4906 108.62 32.352C108.865 32.2026 108.988 31.9946 108.988 31.728C108.988 31.536 108.929 31.376 108.812 31.248C108.705 31.12 108.497 31.0026 108.188 30.896C107.878 30.7893 107.42 30.672 106.812 30.544C106.236 30.416 105.745 30.2453 105.34 30.032C104.934 29.8186 104.63 29.552 104.428 29.232C104.225 28.9013 104.124 28.5066 104.124 28.048C104.124 27.632 104.252 27.232 104.508 26.848C104.774 26.464 105.164 26.1493 105.676 25.904C106.188 25.648 106.828 25.52 107.596 25.52C108.182 25.52 108.694 25.5946 109.132 25.744C109.58 25.8826 109.953 26.064 110.252 26.288C110.55 26.5013 110.774 26.7253 110.924 26.96C111.084 27.184 111.169 27.3813 111.18 27.552C111.19 27.6586 111.158 27.7493 111.084 27.824C111.009 27.8986 110.924 27.936 110.828 27.936H109.404C109.35 27.936 109.302 27.9306 109.26 27.92C109.217 27.8986 109.18 27.872 109.148 27.84C109.02 27.7546 108.886 27.6586 108.748 27.552C108.62 27.4346 108.465 27.3333 108.284 27.248C108.102 27.1626 107.868 27.12 107.58 27.12C107.228 27.12 106.956 27.2 106.764 27.36C106.582 27.5093 106.492 27.7013 106.492 27.936C106.492 28.0853 106.54 28.224 106.636 28.352C106.732 28.48 106.929 28.5973 107.228 28.704C107.526 28.8106 107.98 28.9226 108.588 29.04C109.313 29.168 109.889 29.36 110.316 29.616C110.742 29.872 111.046 30.1706 111.228 30.512C111.42 30.8426 111.516 31.2 111.516 31.584C111.516 32.0853 111.366 32.5333 111.068 32.928C110.769 33.312 110.332 33.616 109.756 33.84C109.19 34.0533 108.492 34.16 107.66 34.16ZM116.331 34.16C115.67 34.16 115.099 34.0853 114.619 33.936C114.15 33.776 113.766 33.584 113.467 33.36C113.179 33.136 112.961 32.912 112.811 32.688C112.673 32.4533 112.598 32.256 112.587 32.096C112.577 31.9786 112.614 31.8826 112.699 31.808C112.785 31.7333 112.87 31.696 112.955 31.696H114.507C114.539 31.696 114.571 31.7013 114.603 31.712C114.635 31.7226 114.667 31.7493 114.699 31.792C114.838 31.888 114.982 32 115.131 32.128C115.281 32.2453 115.451 32.3466 115.643 32.432C115.846 32.5173 116.097 32.56 116.395 32.56C116.747 32.56 117.046 32.4906 117.291 32.352C117.537 32.2026 117.659 31.9946 117.659 31.728C117.659 31.536 117.601 31.376 117.483 31.248C117.377 31.12 117.169 31.0026 116.859 30.896C116.55 30.7893 116.091 30.672 115.483 30.544C114.907 30.416 114.417 30.2453 114.011 30.032C113.606 29.8186 113.302 29.552 113.099 29.232C112.897 28.9013 112.795 28.5066 112.795 28.048C112.795 27.632 112.923 27.232 113.179 26.848C113.446 26.464 113.835 26.1493 114.347 25.904C114.859 25.648 115.499 25.52 116.267 25.52C116.854 25.52 117.366 25.5946 117.803 25.744C118.251 25.8826 118.625 26.064 118.923 26.288C119.222 26.5013 119.446 26.7253 119.595 26.96C119.755 27.184 119.841 27.3813 119.851 27.552C119.862 27.6586 119.83 27.7493 119.755 27.824C119.681 27.8986 119.595 27.936 119.499 27.936H118.075C118.022 27.936 117.974 27.9306 117.931 27.92C117.889 27.8986 117.851 27.872 117.819 27.84C117.691 27.7546 117.558 27.6586 117.419 27.552C117.291 27.4346 117.137 27.3333 116.955 27.248C116.774 27.1626 116.539 27.12 116.251 27.12C115.899 27.12 115.627 27.2 115.435 27.36C115.254 27.5093 115.163 27.7013 115.163 27.936C115.163 28.0853 115.211 28.224 115.307 28.352C115.403 28.48 115.601 28.5973 115.899 28.704C116.198 28.8106 116.651 28.9226 117.259 29.04C117.985 29.168 118.561 29.36 118.987 29.616C119.414 29.872 119.718 30.1706 119.899 30.512C120.091 30.8426 120.187 31.2 120.187 31.584C120.187 32.0853 120.038 32.5333 119.739 32.928C119.441 33.312 119.003 33.616 118.427 33.84C117.862 34.0533 117.163 34.16 116.331 34.16Z" fill="#111111"/>
<path d="M40 20C40 25.5258 37.7526 30.5155 34.1443 34.1443C30.5155 37.7526 25.5258 40 20 40H14.6392C14.0618 40 13.6082 39.5464 13.6082 38.9691V34.2268C13.6082 33.6495 14.0618 33.1959 14.6392 33.1959H20C23.6495 33.1959 26.9484 31.7114 29.3402 29.3402C31.7114 26.9484 33.1959 23.6495 33.1959 20C33.1959 12.7216 27.2784 6.80412 20 6.80412H7.83504C7.25772 6.80412 6.80412 7.25772 6.80412 7.83504V25.3608C6.80412 25.9382 6.35052 26.3918 5.7732 26.3918H1.03093C0.453608 26.3918 0 25.9382 0 25.3608V1.03093C0 0.453608 0.453608 0 1.03093 0H20C31.0516 0 40 8.94844 40 20Z" fill="#0035F2"/>
<path d="M13.6083 27.4228V32.165C13.6083 32.7424 13.1547 33.196 12.5774 33.196H7.83512C7.2578 33.196 6.8042 32.7424 6.8042 32.165V27.4228C6.8042 26.8454 7.2578 26.3918 7.83512 26.3918H12.5774C13.1547 26.3918 13.6083 26.8454 13.6083 27.4228Z" fill="#0035F2"/>
</g>
<defs>
<clipPath id="clip0_2823_4537">
<rect width="120.8" height="40" fill="white"/>
</clipPath>
</defs>
</svg>
