<svg width="48" height="12" viewBox="0 0 48 12" fill="none" xmlns="http://www.w3.org/2000/svg">
<g clip-path="url(#clip0_2823_4743)">
<path d="M28.683 3.4068C27.9961 3.41457 27.3214 3.58973 26.7174 3.9171C26.7174 2.1381 26.7444 0.5931 26.7855 0L23.1675 0.7035V1.0344L23.5227 1.0758C24.0279 1.1448 24.2187 1.4484 24.2871 2.124C24.3963 3.4344 24.3828 10.4277 24.2871 11.5449C25.2982 11.787 26.333 11.9164 27.3726 11.931C30.2397 11.931 31.9734 10.1379 31.9734 7.2966C31.9596 5.0346 30.5532 3.4068 28.683 3.4068ZM27.4272 11.3658C27.2214 11.3628 27.0162 11.3448 26.8128 11.3103C26.7582 10.5243 26.7174 7.2828 26.7309 4.4553C27.0022 4.35753 27.2892 4.31074 27.5775 4.3173C28.7652 4.3173 29.4342 5.7102 29.4342 7.4484C29.4204 9.6828 28.6014 11.3655 27.4272 11.3655V11.3658ZM9.5703 3.4893L9.0105 3.6411C8.5053 1.986 7.7271 1.0479 6.2664 1.0479H4.3824C4.3005 2.1099 4.2594 3.8757 4.2732 5.7099L5.5428 5.6688C6.3891 5.6412 6.7308 5.0067 6.9354 4.0824H7.413V7.9722H6.9354C6.7305 7.0341 6.3756 6.3996 5.529 6.372L4.2732 6.3306C4.2867 7.7238 4.3278 8.91 4.3824 9.6135C4.4643 10.6479 4.7511 11.103 5.4744 11.2134L6.1164 11.2824V11.7513H0V11.283L0.5052 11.214C1.2288 11.1036 1.5153 10.6485 1.5972 9.6141C1.7337 7.9038 1.761 4.359 1.5972 2.3727C1.5153 1.3521 1.2288 0.8967 0.5052 0.7866L0 0.717V0.2622H9.5157L9.5703 3.4896V3.4893ZM12.6147 3.3099C15.3177 3.3099 16.6557 5.1582 16.6557 7.6134C16.6557 10.0686 15.1404 11.9445 12.4371 11.9445C9.7341 11.9445 8.3823 10.0965 8.3823 7.6548C8.3823 5.2134 9.8979 3.3099 12.6147 3.3099ZM12.4782 3.8343C11.2767 3.8343 10.9491 5.4618 10.9491 7.6272C10.9491 9.7929 11.4816 11.4204 12.5871 11.4204C13.6932 11.4204 14.1162 9.7929 14.1162 7.6272C14.1162 5.4618 13.5702 3.8481 12.4644 3.8481L12.4782 3.8343ZM32.6286 7.7103C32.6286 5.448 34.035 3.3237 36.8337 3.3237C39.0999 3.3237 40.1784 5.0205 40.1919 7.2411H35.127C35.0724 9.255 36.0828 10.7445 38.0214 10.7445C38.8677 10.7445 39.3318 10.5375 39.8508 10.1376L40.0827 10.4274C39.5229 11.2134 38.3487 11.9583 36.7926 11.9583C34.3488 11.9445 32.6286 10.2066 32.6286 7.7103ZM35.1546 6.6753L37.6938 6.6204C37.7073 5.4894 37.5297 3.8619 36.615 3.8619C35.7003 3.8619 35.1681 5.3928 35.1408 6.6618L35.1543 6.6756L35.1546 6.6753ZM46.6905 5.8617L46.281 5.9721C45.8439 4.5237 45.1749 3.9171 44.1921 3.9171C43.5369 3.9171 43.0725 4.4136 43.0725 5.1306C43.0725 5.8479 43.605 6.2205 45.1341 6.8136C46.6632 7.4067 47.1 7.9998 47.1 9.1584C47.1 10.8825 45.7893 11.9445 43.6323 11.9445C42.659 11.9404 41.6937 11.7678 40.7793 11.4342L40.7109 9.048L41.1204 8.9376C41.7075 10.6065 42.4854 11.2134 43.5096 11.2134C44.5335 11.2134 44.8611 10.5927 44.8611 9.9306C44.8611 9.2688 44.4924 8.8962 43.1136 8.3997C41.7348 7.9032 40.902 7.3653 40.902 5.9169C40.902 4.4688 42.1305 3.3099 44.1648 3.3099C45.1068 3.3099 46.0077 3.4755 46.6086 3.7515L46.6905 5.8617ZM22.8264 5.7927C21.7344 5.0481 20.5464 5.379 20.3145 5.7789C20.2353 7.2495 20.2446 8.7234 20.3415 10.1928C20.3964 10.8687 20.601 11.172 21.1065 11.241L21.7617 11.2824V11.7513H16.7238V11.283L17.079 11.2416C17.5839 11.1726 17.775 10.8693 17.8434 10.1934C17.9493 8.6091 17.9493 7.0194 17.8434 5.4348C17.7888 4.7589 17.5839 4.4556 17.079 4.3866L16.7238 4.3452V4.014L20.3418 3.3105L20.3007 5.214C21.1473 3.2556 22.8129 2.9934 23.7138 3.5451L22.8264 5.7933V5.7927Z" fill="#193161"/>
<path fill-rule="evenodd" clip-rule="evenodd" d="M36.4374 1.39014H36.2355L35.7534 0.736144L35.6148 0.858544V1.39014H35.4438V0.0197441H35.6148V0.695644L35.7318 0.565144L36.216 0.0197441H36.4158L35.8779 0.616744L36.4374 1.39014ZM37.4742 1.39014L37.3107 0.965644H36.7719L36.6099 1.39014H36.4374L36.9678 0.0140441H37.122L37.6518 1.39014H37.4742ZM37.26 0.812944L37.1076 0.397744L37.0425 0.192544C37.0256 0.261658 37.0061 0.330107 36.984 0.397744L36.8298 0.812944H37.26ZM38.6685 1.39044H37.7265V1.25994L38.442 0.173344H37.7487V0.0197441H38.649V0.149944L37.9335 1.23654H38.6685V1.39014V1.39044ZM39.7791 1.39044L39.6156 0.965944H39.0765L38.9148 1.39044H38.742L39.2727 0.0143441H39.4269L39.9564 1.39044H39.7791ZM39.5643 0.812944L39.4119 0.397744L39.3468 0.192544C39.3299 0.261658 39.3104 0.330107 39.2883 0.397744L39.1341 0.812944H39.5643ZM41.1366 1.39044H40.935L40.4526 0.736444L40.3143 0.858844V1.39044H40.1433V0.0197441H40.3143V0.695644L40.4313 0.565144L40.9155 0.0197441H41.1153L40.5771 0.616744L41.1366 1.39014V1.39044ZM42.3606 1.39044H42.1896V0.751444H41.4924V1.39044H41.3214V0.0197441H41.4924V0.598744H42.1893V0.0200441H42.3603L42.3606 1.39044ZM43.5024 1.02384C43.5024 1.14324 43.4595 1.23744 43.3743 1.30614C43.2888 1.37514 43.1697 1.40934 43.0173 1.40934C42.8562 1.40934 42.7317 1.38774 42.6438 1.34454V1.17954C42.7014 1.20474 42.7644 1.22454 42.8328 1.23864C42.9012 1.25304 42.9654 1.26024 43.0248 1.26024C43.1265 1.26024 43.203 1.24044 43.2543 1.20114C43.2793 1.18239 43.2994 1.15785 43.3128 1.12964C43.3263 1.10142 43.3327 1.07037 43.3314 1.03914C43.3331 0.999652 43.3234 0.960509 43.3035 0.926344C43.2794 0.891889 43.2474 0.863624 43.2102 0.843844C43.1467 0.809383 43.0803 0.780282 43.0119 0.756844C42.8859 0.710644 42.7959 0.656044 42.7422 0.593344C42.6882 0.530344 42.6612 0.449344 42.6612 0.350044C42.6612 0.242944 42.7011 0.158044 42.7809 0.0950442C42.8604 0.0320441 42.9654 0.000244141 43.0953 0.000244141C43.2312 0.000244141 43.356 0.0257441 43.47 0.0770441L43.4169 0.225244C43.3005 0.176344 43.1919 0.152044 43.0917 0.152044C43.011 0.152044 42.948 0.169744 42.9027 0.204544C42.8803 0.221706 42.8624 0.244041 42.8505 0.26964C42.8386 0.295238 42.833 0.32334 42.8343 0.351544C42.8343 0.396544 42.8433 0.434044 42.8607 0.463744C42.8787 0.493744 42.9069 0.520744 42.9462 0.544744C42.9855 0.569344 43.0473 0.597244 43.1316 0.628444C43.2327 0.665944 43.308 0.702244 43.3575 0.737644C43.407 0.773044 43.4436 0.813544 43.467 0.859444C43.4907 0.905344 43.5024 0.959944 43.5024 1.02384ZM44.2068 1.39044H44.0349V0.171544H43.6101V0.0197441H44.6286V0.171544H44.2068V1.39014V1.39044ZM45.6219 1.39044L45.4584 0.965944H44.9193L44.7579 1.39044H44.5848L45.1155 0.0143441H45.2697L45.7995 1.39044H45.6219ZM45.4074 0.812944L45.255 0.397744L45.1899 0.192544C45.173 0.261658 45.1535 0.330107 45.1314 0.397744L44.9769 0.812944H45.4074ZM47.0634 1.39044H46.8633L46.1355 0.252244H46.128L46.1328 0.328144C46.14 0.441844 46.1439 0.540544 46.1439 0.624244V1.39014H45.9858V0.0197441H46.1838L46.2258 0.0860441L46.6716 0.782044L46.9086 1.15404H46.9161C46.9149 1.13904 46.9122 1.08534 46.9086 0.993244C46.905 0.901144 46.9029 0.834244 46.9029 0.793144V0.0197441H47.0628V1.39014L47.0634 1.39044Z" fill="#193161"/>
</g>
<defs>
<clipPath id="clip0_2823_4743">
<rect width="47.1" height="12" fill="white"/>
</clipPath>
</defs>
</svg>
