<svg width="64" height="64" viewBox="0 0 64 64" fill="none" xmlns="http://www.w3.org/2000/svg">
<path d="M23.4993 15.3494C22.9015 14.2067 22.7684 12.8772 23.1277 11.6386C23.487 10.4001 24.311 9.34829 25.4275 8.70291C26.544 8.05753 27.8667 7.8685 29.1193 8.17532C30.3718 8.48213 31.4574 9.26105 32.1493 10.3494L39.6493 23.3244" stroke="#F4C050" stroke-width="4" stroke-linecap="round" stroke-linejoin="round"/>
<path d="M16.8508 23.8002L12.8508 16.8752C12.2531 15.7325 12.1199 14.403 12.4793 13.1645C12.8386 11.9259 13.6625 10.8741 14.779 10.2287C15.8955 9.58335 17.2182 9.39432 18.4708 9.70113C19.7234 10.0079 20.809 10.7869 21.5008 11.8752L30.0008 26.6002" stroke="#F4C050" stroke-width="4" stroke-linecap="round" stroke-linejoin="round"/>
<path d="M38.4997 41.3248C37.841 40.1894 37.4128 38.9351 37.2398 37.6339C37.0667 36.3327 37.1522 35.0102 37.4913 33.7421C37.8304 32.474 38.4164 31.2853 39.2158 30.2441C40.0152 29.203 41.0122 28.3298 42.1497 27.6748L39.6497 23.3248C38.9867 22.1744 38.8078 20.8077 39.1524 19.5255C39.497 18.2432 40.3369 17.1503 41.4872 16.4873C42.6376 15.8242 44.0043 15.6453 45.2866 15.9899C46.5688 16.3345 47.6617 17.1744 48.3247 18.3248L53.3247 26.9998C55.9769 31.5946 56.6951 37.0549 55.3214 42.1793C53.9477 47.3037 50.5946 51.6726 45.9997 54.3248C41.4049 56.9769 35.9446 57.6952 30.8202 56.3215C25.6958 54.9477 21.3269 51.5946 18.6747 46.9998L8.17475 28.7998C7.84644 28.2301 7.63354 27.6015 7.54821 26.9496C7.46288 26.2977 7.50678 25.6354 7.6774 25.0004C8.022 23.7182 8.86187 22.6253 10.0122 21.9623C11.1626 21.2992 12.5293 21.1203 13.8116 21.4649C15.0938 21.8095 16.1867 22.6494 16.8497 23.7998L22.3497 33.3248" stroke="#F4C050" stroke-width="4" stroke-linecap="round" stroke-linejoin="round"/>
<path d="M20.275 60C16.878 57.657 14.0501 54.5814 12 51" stroke="#F4C050" stroke-width="4" stroke-linecap="round" stroke-linejoin="round"/>
<path d="M44 7.75005C46.2821 7.74386 48.5251 8.34201 50.5011 9.48369C52.4771 10.6254 54.1156 12.2699 55.25 14.25" stroke="#F4C050" stroke-width="4" stroke-linecap="round" stroke-linejoin="round"/>
</svg>
