<svg width="101" height="12" viewBox="0 0 101 12" fill="none" xmlns="http://www.w3.org/2000/svg">
<g clip-path="url(#clip0_2823_4735)">
<path d="M0.014944 11.8853L2.17186 11.8903L2.16189 3.20288H0L0.014944 11.8853ZM8.72229 3.21284L7.28269 3.20786C6.39662 3.20918 5.54721 3.56175 4.92066 4.1883C4.29412 4.81485 3.94154 5.66425 3.94022 6.55033L3.93026 11.9003L6.09215 11.9052L6.09714 6.55531C6.09845 6.24128 6.22377 5.9405 6.44583 5.71844C6.66788 5.49639 6.96867 5.37107 7.28269 5.36975L8.71731 5.37474C8.87276 5.37473 9.02669 5.40544 9.17025 5.46508C9.31381 5.52472 9.44417 5.61212 9.55387 5.72228C9.66356 5.83243 9.75041 5.96317 9.80945 6.10697C9.86849 6.25078 9.89854 6.40484 9.89788 6.56029L9.8929 11.9102H12.0548L12.0598 6.56029C12.0598 4.7172 10.5654 3.21284 8.72229 3.21284Z" fill="#012160"/>
<path d="M13.654 8.56289C13.6658 9.44117 14.0223 10.2796 14.6466 10.8975C15.271 11.5153 16.1131 11.863 16.9915 11.8655L18.4261 11.8705C20.2692 11.8705 21.7686 10.3711 21.7736 8.52802V6.52553C21.7785 4.67746 20.2792 3.17808 18.4361 3.1731H18.0625C17.2953 3.1731 16.5382 3.37733 15.8856 3.7858L15.796 3.8406L15.801 0.667497L13.644 0.662516L13.654 8.56289ZM15.8159 6.51557C15.8159 6.20246 15.9403 5.90218 16.1617 5.68078C16.3831 5.45937 16.6834 5.33499 16.9965 5.33499H18.4361C18.7496 5.33631 19.0499 5.4618 19.2712 5.68399C19.4924 5.90618 19.6166 6.20698 19.6166 6.52055L19.6117 8.52802C19.6117 8.84113 19.4873 9.14141 19.2659 9.36281C19.0445 9.58421 18.7442 9.70859 18.4311 9.70859L16.9915 9.70361C16.8365 9.70361 16.6829 9.67307 16.5397 9.61374C16.3965 9.55442 16.2663 9.46745 16.1567 9.35783C16.0471 9.2482 15.9601 9.11806 15.9008 8.97482C15.8415 8.83159 15.8109 8.67807 15.8109 8.52304L15.8159 6.51557ZM26.4161 11.8755L27.8557 11.8804C28.7418 11.8791 29.5912 11.5266 30.2178 10.9C30.8443 10.2735 31.1969 9.42405 31.1982 8.53798L31.2032 3.18804H29.0463L29.0413 8.53798C29.04 8.85155 28.9145 9.15182 28.6923 9.37308C28.4701 9.59434 28.1693 9.71856 27.8557 9.71855L26.4211 9.71357C26.1076 9.71358 25.8068 9.58935 25.5846 9.3681C25.3624 9.14684 25.2369 8.84656 25.2356 8.533L25.2455 3.18306H23.0836L23.0787 8.52802C23.0737 10.3711 24.5731 11.8755 26.4161 11.8755ZM59.2082 3.22291H57.7686C55.9255 3.21793 54.4261 4.71731 54.4211 6.5604V8.56787C54.4211 10.411 55.9155 11.9153 57.7586 11.9153L59.1982 11.9203C60.6777 11.9203 62.0027 10.924 62.4112 9.49938L60.334 8.90162C60.2621 9.14766 60.1128 9.36395 59.9081 9.51831C59.7035 9.67268 59.4545 9.75688 59.1982 9.7584L57.7636 9.75342C57.6081 9.75343 57.4542 9.72272 57.3107 9.66308C57.1671 9.60344 57.0367 9.51604 56.927 9.40588C56.8173 9.29573 56.7305 9.16499 56.6714 9.02118C56.6124 8.87738 56.5824 8.72332 56.583 8.56787V8.533L62.5108 7.81569H62.5407L62.5457 6.57036C62.5457 4.72727 61.0513 3.22291 59.2082 3.22291ZM56.6029 6.37111C56.649 6.09529 56.7914 5.84477 57.0048 5.66415C57.2183 5.48352 57.4889 5.38453 57.7686 5.38481H59.2032C59.791 5.38481 60.2742 5.81818 60.3638 6.37609L56.5531 6.86924L56.6029 6.37111ZM41.1609 11.8854L43.3178 11.8904L43.3078 3.20299H41.1459L41.1609 11.8854ZM49.8682 3.21295L48.4286 3.20797C47.5425 3.20929 46.6931 3.56186 46.0666 4.18841C45.44 4.81496 45.0875 5.66436 45.0861 6.55044L45.0762 11.9004L47.2381 11.9054L47.243 6.55542C47.2444 6.24139 47.3697 5.9406 47.5917 5.71855C47.8138 5.4965 48.1146 5.37117 48.4286 5.36986L49.8632 5.37484C50.1768 5.37616 50.4771 5.50165 50.6983 5.72384C50.9196 5.94603 51.0438 6.24683 51.0438 6.5604L51.0388 11.9103H53.2007L53.2057 6.5604C53.2057 4.71731 51.7113 3.21295 49.8682 3.21295ZM39.7511 5.78829V5.6787C39.7588 5.1625 39.6108 4.65595 39.3265 4.22504C39.0422 3.79412 38.6347 3.45881 38.1571 3.26276C37.6653 3.04681 37.1351 2.93164 36.598 2.92403H35.7163C35.1896 2.93639 34.6689 3.03917 34.177 3.2279C33.7008 3.40623 33.2811 3.70897 32.9616 4.10461C32.6759 4.48307 32.5235 4.94549 32.5282 5.41968C32.5282 6.40598 33.1011 7.19303 34.2418 7.75093C34.5805 7.9203 35.0189 8.08468 35.5718 8.25405C35.8607 8.33873 36.1795 8.42839 36.5282 8.51307C36.8371 8.59278 37.0812 8.68742 37.2007 8.78705C37.39 8.93151 37.4797 9.13574 37.4797 9.40473C37.4797 9.63885 37.395 9.80822 37.2256 9.93773C37.0513 10.0672 36.8072 10.127 36.4884 10.127H35.6864C35.3178 10.0971 35.0388 10.0025 34.8595 9.83313C34.6453 9.63885 34.5407 9.32503 34.5407 8.90162V8.79701L32.2692 8.79203V8.90162C32.2559 9.45038 32.4087 9.99035 32.7076 10.4508C33.0015 10.8991 33.4398 11.2528 34.0127 11.5068C34.5108 11.731 35.0637 11.8605 35.6515 11.8904H36.4834C37.4846 11.8904 38.2866 11.6712 38.8595 11.2379C39.1454 11.0253 39.3754 10.7465 39.5298 10.4255C39.6843 10.1045 39.7585 9.75079 39.7462 9.39477C39.7462 8.38356 39.248 7.61146 38.3016 7.15317C37.8682 6.96887 37.4597 6.83437 36.847 6.63512L36.7922 6.61519L35.9404 6.33624C35.6411 6.24777 35.3559 6.11693 35.0936 5.9477C34.8844 5.78829 34.7848 5.62391 34.7848 5.4396C34.7848 5.2254 34.8744 5.05106 35.0587 4.9066C35.2231 4.78207 35.4473 4.71233 35.7213 4.6924L36.4186 4.68742L36.5382 4.6924C36.8171 4.71233 37.0413 4.79701 37.2057 4.94645C37.395 5.1208 37.4896 5.3599 37.4896 5.6787V5.78331L39.7511 5.78829ZM70.8396 5.82316V5.71855C70.8503 5.20567 70.7044 4.7017 70.4211 4.27397C70.1306 3.84286 69.7226 3.50404 69.2455 3.29763C68.7545 3.08506 68.2263 2.97163 67.6914 2.96389L67.4572 2.9589H66.8097C66.2827 2.97285 65.762 3.07732 65.2704 3.26775C64.7474 3.47198 64.3389 3.76588 64.055 4.14446C63.7672 4.51995 63.6146 4.98153 63.6216 5.45455C63.6216 6.44583 64.1945 7.22789 65.3302 7.79078C65.6739 7.96015 66.1073 8.12453 66.6652 8.28892C66.9491 8.37858 67.2729 8.46326 67.6166 8.55293C67.9305 8.62765 68.1696 8.72727 68.2941 8.82192C68.4784 8.97136 68.5731 9.17559 68.5731 9.4396C68.5681 9.67372 68.4884 9.84807 68.319 9.9726C68.1447 10.1021 67.9006 10.1669 67.5768 10.1669H66.7798C66.478 10.1615 66.1861 10.0584 65.9479 9.87298C65.7387 9.6787 65.6341 9.36488 65.6341 8.94147V8.83188H63.3576V8.93649C63.3576 9.5193 63.5071 10.0374 63.801 10.4857C64.0899 10.934 64.5332 11.2877 65.1061 11.5467C65.6042 11.7659 66.1571 11.8954 66.7449 11.9253H67.5768C68.578 11.9253 69.375 11.7061 69.9529 11.2727C70.2384 11.0609 70.4682 10.783 70.6226 10.4629C70.7771 10.1427 70.8515 9.78988 70.8396 9.43462C70.8396 8.42341 70.3414 7.64633 69.395 7.19303C68.9616 7.00374 68.5531 6.86924 67.9354 6.66999L67.8856 6.65504L67.0288 6.37609C66.7319 6.28119 66.4476 6.15073 66.182 5.98755C65.9778 5.82814 65.8782 5.65878 65.8782 5.47447C65.8782 5.26027 65.9678 5.08593 66.1521 4.94645C66.3165 4.81694 66.5407 4.7472 66.8097 4.72727H67.6316C67.9056 4.7472 68.1297 4.83686 68.2991 4.9863C68.4884 5.15567 68.583 5.39477 68.578 5.71357V5.82316H70.8396ZM79.0737 5.83313V5.72852C79.0858 5.21074 78.9397 4.70158 78.6549 4.26901C78.3701 3.83644 77.9601 3.50104 77.4797 3.3076C76.9871 3.09391 76.4574 2.97883 75.9205 2.96887H75.0388C74.5118 2.98281 73.9912 3.08728 73.4996 3.27771C72.9815 3.48194 72.5731 3.77584 72.2891 4.15442C71.9999 4.52945 71.8455 4.99096 71.8508 5.46451C71.8508 6.45579 72.4286 7.23786 73.5643 7.80075C73.9031 7.97011 74.3414 8.13449 74.8944 8.29888C75.1833 8.38854 75.5021 8.47322 75.8508 8.56289C76.1596 8.63761 76.4037 8.73723 76.5232 8.83188C76.7125 8.98132 76.8022 9.18555 76.8022 9.44956C76.8022 9.68369 76.7175 9.85803 76.5481 9.98256C76.3738 10.1121 76.1297 10.1768 75.8109 10.1768H75.0089C74.7085 10.1722 74.418 10.0689 74.182 9.88294C73.9678 9.68867 73.8632 9.37484 73.8632 8.95143V8.84184H71.5917V8.94645C71.5917 9.52926 71.7362 10.0473 72.0301 10.4956C72.324 10.944 72.7623 11.2976 73.3352 11.5567C73.8383 11.7758 74.3863 11.9054 74.974 11.9352H75.8059C76.8072 11.9352 77.6092 11.7161 78.182 11.2827C78.4678 11.0712 78.6979 10.7934 78.8523 10.4731C79.0068 10.1529 79.0811 9.7999 79.0687 9.44458C79.0687 8.43337 78.5706 7.65629 77.6291 7.20299C77.1907 7.0137 76.7873 6.8792 76.1696 6.67995L76.1148 6.66501L75.263 6.38605C74.9652 6.29328 74.6806 6.1627 74.4161 5.99751C74.2069 5.83811 74.1073 5.66874 74.1073 5.48443C74.1073 5.27024 74.197 5.09589 74.3863 4.95641C74.5506 4.8269 74.7698 4.75716 75.0438 4.73724H75.8607C76.1397 4.75716 76.3638 4.84682 76.5282 4.99626C76.7175 5.16563 76.8122 5.40473 76.8122 5.72354V5.82814L79.0737 5.83313ZM79.5967 11.0187C79.5967 10.7597 79.5967 10.5654 79.6067 10.4359C79.6117 10.3014 79.6465 10.2067 79.7113 10.1469C79.776 10.0922 79.8807 10.0573 80.0301 10.0523C80.4633 10.0377 80.897 10.0377 81.3302 10.0523C81.4747 10.0573 81.5843 10.0922 81.649 10.1469C81.7138 10.2067 81.7486 10.3014 81.7536 10.4359C81.7685 10.8259 81.7685 11.2164 81.7536 11.6065C81.7486 11.736 81.7138 11.8306 81.649 11.8904C81.5843 11.9502 81.4747 11.9851 81.3302 11.99C80.897 12.0043 80.4633 12.0043 80.0301 11.99C79.8807 11.9851 79.776 11.9502 79.7113 11.8904C79.6465 11.8306 79.6117 11.736 79.6067 11.6065C79.5967 11.477 79.5967 11.2827 79.5967 11.0187ZM85.1609 12H82.989V0H85.1609V6.57534L87.8059 2.98381H90.2069L87.4722 6.73474L91.2929 12H88.8919L86.2418 8.3736L85.1609 9.77833V12ZM95.0936 10.0423H100.125V12H92.1447V10.0423L96.9417 4.94147H92.3937V2.98381H99.8757V4.94147L95.0936 10.0423Z" fill="#34ACFF"/>
</g>
<defs>
<clipPath id="clip0_2823_4735">
<rect width="100.125" height="12" fill="white"/>
</clipPath>
</defs>
</svg>
