<svg width="32" height="32" viewBox="0 0 32 32" fill="none" xmlns="http://www.w3.org/2000/svg">
<rect width="32" height="32" rx="16" fill="#0A66C2"/>
<path d="M23.9986 22.9999H20.6859V17.8029C20.6859 16.5636 20.6638 14.9683 18.9629 14.9683C17.2375 14.9683 16.9735 16.3186 16.9735 17.7127V22.9996H13.6608V12.3124H16.841V13.7729H16.8855C17.2038 13.2278 17.6637 12.7794 18.2162 12.4753C18.7688 12.1713 19.3933 12.0231 20.0233 12.0465C23.381 12.0465 24 14.2589 24 17.1371L23.9986 22.9999ZM9.92279 10.8516C8.86105 10.8518 8.00017 9.98971 8 8.92613C7.99983 7.86254 8.86035 7.00018 9.9221 7C10.9838 6.99974 11.8447 7.86184 11.8449 8.92543C11.845 9.43618 11.6425 9.92606 11.2821 10.2873C10.9216 10.6485 10.4327 10.8515 9.92279 10.8516ZM11.5792 23H8.26297V12.3124H11.5791L11.5792 23Z" fill="white"/>
</svg>
