<svg width="64" height="64" viewBox="0 0 64 64" fill="none" xmlns="http://www.w3.org/2000/svg">
<path d="M18.6667 26.9167H18.9167V26.6667V18.6667C18.9167 11.4527 24.7861 5.58334 32 5.58334C39.2139 5.58334 45.0833 11.4527 45.0833 18.6667V26.6667V26.9167H45.3333H48C50.8033 26.9167 53.0833 29.1967 53.0833 32V53.3333C53.0833 56.1366 50.8033 58.4167 48 58.4167H16C13.1967 58.4167 10.9167 56.1366 10.9167 53.3333V32C10.9167 29.1967 13.1967 26.9167 16 26.9167H18.6667ZM48.25 31.9999L48.2499 31.75H48H16H15.75V32V53.3333V53.5833H16H48.0053H48.2554L48.2553 53.3333L48.25 31.9999ZM23.75 26.6667V26.9167H24H40H40.25V26.6667V18.6667C40.25 14.1179 36.5487 10.4167 32 10.4167C27.4513 10.4167 23.75 14.1179 23.75 18.6667V26.6667Z" fill="#D92E21" stroke="white" stroke-width="0.5"/>
</svg>
