<svg width="89" height="106" viewBox="0 0 89 106" fill="none" xmlns="http://www.w3.org/2000/svg">
<path d="M84.15 46.1501L12.15 2.20008C10.9507 1.44007 9.56565 1.02414 8.14604 0.997683C6.72643 0.971231 5.32684 1.33528 4.10003 2.05008C2.85509 2.73312 1.81727 3.73908 1.09576 4.96213C0.374249 6.18517 -0.00426727 7.58008 3.62918e-05 9.00008V97.0001C-0.00426727 98.4201 0.374249 99.815 1.09576 101.038C1.81727 102.261 2.85509 103.267 4.10003 103.95C5.32684 104.665 6.72643 105.029 8.14604 105.002C9.56565 104.976 10.9507 104.56 12.15 103.8L84.15 59.8501C85.3301 59.1381 86.3063 58.1334 86.9839 56.9333C87.6615 55.7331 88.0175 54.3783 88.0175 53.0001C88.0175 51.6219 87.6615 50.267 86.9839 49.0669C86.3063 47.8667 85.3301 46.862 84.15 46.1501Z" fill="white"/>
</svg>
