<svg width="30" height="30" viewBox="0 0 30 30" fill="none" xmlns="http://www.w3.org/2000/svg">
<path d="M15 0.375C12.1075 0.375 9.27986 1.23274 6.87479 2.83976C4.46972 4.44677 2.5952 6.73089 1.48827 9.40325C0.381337 12.0756 0.091713 15.0162 0.656022 17.8532C1.22033 20.6902 2.61323 23.2961 4.65857 25.3414C6.70391 27.3868 9.30984 28.7797 12.1468 29.344C14.9838 29.9083 17.9244 29.6187 20.5968 28.5117C23.2691 27.4048 25.5532 25.5303 27.1602 23.1252C28.7673 20.7201 29.625 17.8926 29.625 15C29.6176 11.1235 28.0743 7.40788 25.3332 4.66677C22.5921 1.92566 18.8765 0.382433 15 0.375V0.375ZM20.625 16.125H16.125V20.625C16.125 20.9234 16.0065 21.2095 15.7955 21.4205C15.5845 21.6315 15.2984 21.75 15 21.75C14.7016 21.75 14.4155 21.6315 14.2045 21.4205C13.9935 21.2095 13.875 20.9234 13.875 20.625V16.125H9.37501C9.07664 16.125 8.79049 16.0065 8.57951 15.7955C8.36853 15.5845 8.25001 15.2984 8.25001 15C8.25001 14.7016 8.36853 14.4155 8.57951 14.2045C8.79049 13.9935 9.07664 13.875 9.37501 13.875H13.875V9.375C13.875 9.07663 13.9935 8.79048 14.2045 8.57951C14.4155 8.36853 14.7016 8.25 15 8.25C15.2984 8.25 15.5845 8.36853 15.7955 8.57951C16.0065 8.79048 16.125 9.07663 16.125 9.375V13.875H20.625C20.9234 13.875 21.2095 13.9935 21.4205 14.2045C21.6315 14.4155 21.75 14.7016 21.75 15C21.75 15.2984 21.6315 15.5845 21.4205 15.7955C21.2095 16.0065 20.9234 16.125 20.625 16.125Z" fill="#1D1D1F"/>
</svg>
