<svg width="57" height="18" viewBox="0 0 57 18" fill="none" xmlns="http://www.w3.org/2000/svg">
<g clip-path="url(#clip0_2823_4778)">
<path fill-rule="evenodd" clip-rule="evenodd" d="M5.00001 5.98678L1.57245 5.35066C0.696926 5.18866 0.322526 4.54966 1.14693 3.85522L4.39989 1.11454C5.03961 0.57562 5.99757 0.165579 7.09989 0.355299L10.9688 1.0213C11.9505 1.1905 12.3199 1.78702 11.431 2.5837L8.61477 5.1091C7.60317 6.01666 6.49041 6.26362 5.00001 5.98678Z" fill="url(#paint0_linear_2823_4778)"/>
<path fill-rule="evenodd" clip-rule="evenodd" d="M4.98578 6.06674L1.55822 5.43098C1.30514 5.38418 1.0913 5.29886 0.93146 5.18402C0.7835 5.07818 0.68054 4.94642 0.6341 4.79522C0.58766 4.6433 0.59918 4.47518 0.6809 4.29806C0.75578 4.13606 0.89078 3.96578 1.0949 3.7937L4.34822 1.05266C4.70174 0.754578 5.15066 0.495378 5.66582 0.350298C6.10538 0.226458 6.59426 0.185778 7.11374 0.275418L10.9827 0.941778C11.2653 0.990018 11.5007 1.0739 11.6739 1.18694C11.8315 1.2899 11.9395 1.41842 11.9881 1.56854C12.0367 1.71938 12.0245 1.88894 11.9406 2.07254C11.86 2.24966 11.7117 2.44154 11.4856 2.64386L8.6693 5.16962C8.1527 5.63258 7.60982 5.92706 7.0061 6.07106C6.40382 6.2147 5.74178 6.20714 4.98578 6.06674ZM1.58738 5.2715L5.01494 5.90762C5.74898 6.0437 6.3887 6.05126 6.96866 5.91338C7.5461 5.77586 8.0663 5.49326 8.5613 5.04938L11.3776 2.52362C11.586 2.33714 11.7217 2.16362 11.7934 2.00594C11.8596 1.86122 11.8704 1.73162 11.8341 1.6193C11.7973 1.50626 11.712 1.40654 11.5853 1.3241C11.4301 1.22258 11.2159 1.14734 10.9557 1.1027L7.08638 0.435258C6.5921 0.350658 6.1277 0.389178 5.70974 0.506538C5.21762 0.645138 4.78922 0.892458 4.45226 1.17686L1.19894 3.91754C1.01462 4.07306 0.89366 4.22462 0.82814 4.3661C0.76406 4.5047 0.75398 4.63358 0.78926 4.7477V4.74806C0.82454 4.8629 0.90662 4.96586 1.02614 5.05226C1.16726 5.15342 1.35914 5.22866 1.58738 5.2715Z" fill="url(#paint1_linear_2823_4778)"/>
<path fill-rule="evenodd" clip-rule="evenodd" d="M4.69526 6.99843L1.5503 6.38103C0.531861 6.18087 -0.101379 6.86091 0.127221 7.89195L1.02938 11.9596C1.25834 12.9913 2.29118 14.0073 3.31286 14.1977L6.3581 14.7658C7.38014 14.9559 8.01086 14.3622 7.78226 13.3297L6.8801 9.26283C6.65582 8.24943 6.03554 7.26195 4.69526 6.99843Z" fill="url(#paint2_linear_2823_4778)"/>
<path fill-rule="evenodd" clip-rule="evenodd" d="M4.67992 7.07869L1.53496 6.46093C1.30924 6.41665 1.10476 6.41737 0.926556 6.45661C0.729636 6.50053 0.564396 6.59161 0.439116 6.72229C0.313476 6.85261 0.226716 7.02289 0.186756 7.22485C0.149316 7.41637 0.153636 7.63525 0.206916 7.87501L1.10908 11.9412C1.21996 12.4423 1.52812 12.9409 1.93276 13.338C2.33632 13.7329 2.83384 14.0256 3.32776 14.1181L6.37264 14.6862C6.61528 14.7312 6.8338 14.7305 7.021 14.6891C7.2118 14.647 7.37092 14.5617 7.49044 14.4403C7.60996 14.3187 7.69132 14.1592 7.72696 13.9673C7.7608 13.7873 7.75432 13.5792 7.70284 13.347L6.80104 9.28045C6.68188 8.74153 6.4486 8.21161 6.05152 7.80013C5.72068 7.45705 5.2732 7.19533 4.67992 7.07869ZM1.56628 6.30109L4.71088 6.91885C5.3398 7.04197 5.815 7.32133 6.16816 7.68745C6.58828 8.12305 6.83452 8.68033 6.95908 9.24445L7.86088 13.3121C7.9174 13.5663 7.92388 13.7956 7.88608 13.9961C7.84432 14.2215 7.74784 14.4087 7.606 14.5537C7.46416 14.6974 7.27804 14.7975 7.05556 14.8464C6.84712 14.8929 6.607 14.8943 6.34312 14.845L3.29824 14.2776C2.77156 14.1793 2.2438 13.8701 1.81864 13.4532C1.39312 13.036 1.0684 12.5086 0.950316 11.9761L0.0485159 7.90957C-0.00944407 7.64713 -0.0141241 7.40557 0.0272759 7.19389C0.0726359 6.96133 0.174156 6.76261 0.321396 6.60961C0.468996 6.45661 0.661956 6.34933 0.891276 6.29857C1.0918 6.25429 1.31896 6.25285 1.56628 6.30109Z" fill="url(#paint3_linear_2823_4778)"/>
<path fill-rule="evenodd" clip-rule="evenodd" d="M9.2156 6.09296L12.1759 3.32816C13.2098 2.36228 14.0734 2.80328 14.3262 4.01936L15.1538 8.00096C15.3684 9.03524 14.7614 10.2628 13.9136 11.0358L10.8792 13.7995C9.86864 14.7211 9.07844 14.3305 8.82932 13.208L7.92752 9.15116C7.61684 7.75616 8.51504 6.74708 9.2156 6.09296Z" fill="url(#paint4_linear_2823_4778)"/>
<path fill-rule="evenodd" clip-rule="evenodd" d="M9.16 6.03328L12.1203 3.26884C12.4385 2.97112 12.7442 2.80192 13.0239 2.7436C13.2075 2.7058 13.3799 2.7148 13.5376 2.767C13.6953 2.8192 13.8375 2.91388 13.9606 3.046C14.1669 3.26632 14.3206 3.5932 14.4052 4.00288L15.2325 7.98448C15.3383 8.49496 15.2516 9.04936 15.0366 9.57496C14.8034 10.1463 14.4189 10.6845 13.9678 11.0949L10.9334 13.86C10.6202 14.1444 10.3253 14.3093 10.0571 14.3687C9.87676 14.4083 9.709 14.4015 9.556 14.3511C9.40336 14.3021 9.26656 14.2103 9.1492 14.0807C8.96632 13.8809 8.82952 13.5897 8.74924 13.2254L7.84708 9.16852C7.6876 8.44888 7.8388 7.82932 8.12032 7.30588C8.39932 6.78748 8.80504 6.3652 9.16 6.03328ZM12.2308 3.388L9.27088 6.15244C8.92564 6.475 8.53144 6.88432 8.26396 7.38256C7.99864 7.87576 7.85608 8.4586 8.00584 9.13324L8.908 13.1908C8.98252 13.526 9.106 13.792 9.2698 13.972C9.36808 14.0793 9.48148 14.1563 9.60712 14.197C9.73276 14.238 9.87208 14.2438 10.0229 14.2103C10.2634 14.157 10.533 14.0048 10.8246 13.7391L13.8591 10.9746C14.2936 10.5786 14.6637 10.0613 14.8876 9.5134C15.0906 9.01624 15.1734 8.49388 15.0744 8.01724L14.2475 4.03564C14.1687 3.65548 14.029 3.35524 13.8425 3.15616C13.7381 3.04456 13.619 2.96464 13.4876 2.92144C13.3565 2.87824 13.2122 2.87068 13.0581 2.90272C12.8057 2.95492 12.5267 3.11152 12.2308 3.388Z" fill="url(#paint5_linear_2823_4778)"/>
<path fill-rule="evenodd" clip-rule="evenodd" d="M3.74915 16.4859L7.56983 15.6971C9.41231 15.317 11.7984 15.8228 13.1351 16.0373C14.9685 16.3329 14.7702 16.6482 13.5462 16.9089L9.61211 17.7459C7.79519 18.1322 5.35259 17.4629 3.79379 17.2721C2.52911 17.1173 2.67779 16.7069 3.74915 16.4859Z" fill="#DCDCDC"/>
<path d="M49.219 3.6875H47.4766V7.55138H49.219V3.6875Z" fill="#0E59A9"/>
<path fill-rule="evenodd" clip-rule="evenodd" d="M53.9776 7.55174V5.15522H56.0872V3.6875H50.1479V5.15522H52.2341V7.55174H53.9776Z" fill="#0E59A9"/>
<path fill-rule="evenodd" clip-rule="evenodd" d="M28.1789 4.99466C28.3049 4.9601 28.5457 4.93706 28.9698 4.93706C29.7726 4.93706 30.2543 5.30245 30.2543 5.99797C30.2543 6.67081 29.7377 7.10462 28.8668 7.10462H28.1789V4.99466ZM31.0286 7.55173C31.5485 7.22485 31.9967 6.63769 31.9967 5.86045C31.9967 5.15377 31.7447 4.61666 31.2741 4.24946C30.7241 3.80234 29.9213 3.63062 28.775 3.63062C27.8343 3.63062 27.0092 3.69902 26.4473 3.8027V7.5521H31.0286V7.55173Z" fill="#333333"/>
<path fill-rule="evenodd" clip-rule="evenodd" d="M21.5171 5.01769C21.6431 4.98313 21.884 4.96009 22.2393 4.96009C23.122 4.96009 23.604 5.38453 23.604 6.09553C23.604 6.87529 23.0306 7.34509 22.1021 7.34509C21.8498 7.34509 21.6665 7.33393 21.5171 7.29937V5.01769ZM24.9137 7.55173C25.1913 7.15105 25.3353 6.63229 25.3353 6.03793C25.3353 5.28121 25.0138 4.63897 24.5213 4.26061C24.0051 3.83653 23.2253 3.63025 22.1475 3.63025C21.0812 3.63025 20.3244 3.69865 19.7852 3.79081V7.55137L24.9137 7.55173Z" fill="#333333"/>
<path fill-rule="evenodd" clip-rule="evenodd" d="M45.9512 7.55174V6.8861H43.1767V5.12066H46.146V3.6875H41.4336V7.55174H45.9512Z" fill="#333333"/>
<path fill-rule="evenodd" clip-rule="evenodd" d="M40.2741 7.55176C40.2748 7.52512 40.2751 7.49848 40.2751 7.47148C40.2751 5.33848 38.9799 3.56152 36.6064 3.56152C34.3546 3.56152 32.87 5.26468 32.8462 7.55176H34.6804C34.684 6.11248 35.3597 4.94932 36.5607 4.94932C37.7645 4.94932 38.4186 6.142 38.4186 7.52872L38.4183 7.55176H40.2741Z" fill="#333333"/>
<path d="M49.219 7.55176H47.4766V11.4156H49.219V7.55176Z" fill="url(#paint6_linear_2823_4778)"/>
<path d="M53.9782 7.55176H52.2344V11.4156H53.9782V7.55176Z" fill="url(#paint7_linear_2823_4778)"/>
<path fill-rule="evenodd" clip-rule="evenodd" d="M26.4473 11.4153H28.1789V8.36571H28.6947C29.4176 8.37687 29.7499 8.62923 29.9677 9.60771C30.1851 10.5635 30.3803 11.1978 30.4951 11.4153H32.2839C32.1349 11.1154 31.9056 10.1027 31.6644 9.21783C31.4696 8.50323 31.1715 7.99887 30.6323 7.78071V7.74651C30.7651 7.69791 30.8987 7.63311 31.029 7.55139H26.4473V11.4153Z" fill="url(#paint8_linear_2823_4778)"/>
<path fill-rule="evenodd" clip-rule="evenodd" d="M19.7852 11.4153H21.5168V8.64039C21.677 8.67494 21.8836 8.68647 22.1129 8.68647C23.1447 8.68647 24.0393 8.42259 24.6354 7.87215C24.7395 7.77603 24.832 7.66875 24.9134 7.55103H19.7852V11.4153Z" fill="url(#paint9_linear_2823_4778)"/>
<path fill-rule="evenodd" clip-rule="evenodd" d="M41.4336 11.4153H43.1767V8.30812H45.9512V7.55176H41.4336V11.4153Z" fill="url(#paint10_linear_2823_4778)"/>
<path fill-rule="evenodd" clip-rule="evenodd" d="M36.4914 11.5442C38.7263 11.5442 40.2423 10.0491 40.2743 7.55176H38.4181C38.4109 9.05404 37.7356 10.1549 36.5605 10.1549H36.549C35.3797 10.1549 34.6806 9.01948 34.6806 7.56292V7.55176H32.8464C32.8461 7.57084 32.8457 7.58992 32.8457 7.60936C32.8457 9.81148 34.1989 11.5445 36.4806 11.5445L36.4914 11.5442Z" fill="url(#paint11_linear_2823_4778)"/>
</g>
<defs>
<linearGradient id="paint0_linear_2823_4778" x1="5.79373" y1="-0.0861686" x2="6.83129" y2="6.46486" gradientUnits="userSpaceOnUse">
<stop stop-color="#9C9E9E"/>
<stop offset="1" stop-color="#BEC0C1"/>
</linearGradient>
<linearGradient id="paint1_linear_2823_4778" x1="6.07301" y1="1.48307" x2="6.58087" y2="5.09654" gradientUnits="userSpaceOnUse">
<stop stop-color="#7A7A7A"/>
<stop offset="1" stop-color="#A6A6A6"/>
</linearGradient>
<linearGradient id="paint2_linear_2823_4778" x1="3.42471" y1="14.3798" x2="4.64418" y2="5.70282" gradientUnits="userSpaceOnUse">
<stop stop-color="#1E2F4F"/>
<stop offset="1" stop-color="#2E4776"/>
</linearGradient>
<linearGradient id="paint3_linear_2823_4778" x1="2.93546" y1="15.8511" x2="4.74248" y2="6.55468" gradientUnits="userSpaceOnUse">
<stop stop-color="#0B1C3F"/>
<stop offset="1" stop-color="#1C325B"/>
</linearGradient>
<linearGradient id="paint4_linear_2823_4778" x1="14.4186" y1="12.5024" x2="9.21603" y2="5.34172" gradientUnits="userSpaceOnUse">
<stop stop-color="#002D60"/>
<stop offset="1" stop-color="#005BAF"/>
</linearGradient>
<linearGradient id="paint5_linear_2823_4778" x1="14.2715" y1="12.3003" x2="8.46527" y2="4.30877" gradientUnits="userSpaceOnUse">
<stop stop-color="#002242"/>
<stop offset="1" stop-color="#00417F"/>
</linearGradient>
<linearGradient id="paint6_linear_2823_4778" x1="48.3477" y1="11.4155" x2="48.3477" y2="7.55179" gradientUnits="userSpaceOnUse">
<stop stop-color="#1259A7"/>
<stop offset="1" stop-color="#0C427C"/>
</linearGradient>
<linearGradient id="paint7_linear_2823_4778" x1="53.1061" y1="11.4155" x2="53.1061" y2="7.55179" gradientUnits="userSpaceOnUse">
<stop stop-color="#1259A7"/>
<stop offset="1" stop-color="#0C427C"/>
</linearGradient>
<linearGradient id="paint8_linear_2823_4778" x1="29.3652" y1="11.4155" x2="29.3652" y2="7.55179" gradientUnits="userSpaceOnUse">
<stop stop-color="#333333"/>
<stop offset="1"/>
</linearGradient>
<linearGradient id="paint9_linear_2823_4778" x1="22.3494" y1="11.4154" x2="22.3494" y2="7.55178" gradientUnits="userSpaceOnUse">
<stop stop-color="#333333"/>
<stop offset="1"/>
</linearGradient>
<linearGradient id="paint10_linear_2823_4778" x1="43.6923" y1="11.4155" x2="43.6923" y2="7.55179" gradientUnits="userSpaceOnUse">
<stop stop-color="#333333"/>
<stop offset="1"/>
</linearGradient>
<linearGradient id="paint11_linear_2823_4778" x1="36.5601" y1="11.5441" x2="36.5601" y2="7.55179" gradientUnits="userSpaceOnUse">
<stop stop-color="#333333"/>
<stop offset="1"/>
</linearGradient>
<clipPath id="clip0_2823_4778">
<rect width="56.16" height="18" fill="white"/>
</clipPath>
</defs>
</svg>
