<svg width="14" height="14" viewBox="0 0 14 14" fill="none" xmlns="http://www.w3.org/2000/svg">
<g clip-path="url(#clip0_2823_4508)">
<path d="M12.997 6.43463L8.622 10.8096C8.56081 10.8709 8.48282 10.9126 8.39791 10.9295C8.313 10.9464 8.22498 10.9378 8.145 10.9046C8.06501 10.8715 7.99666 10.8154 7.94859 10.7433C7.90052 10.6713 7.8749 10.5867 7.87497 10.5001V8.32518C4.75231 8.50237 2.61129 10.5274 2.01028 11.1689C1.91591 11.2697 1.79215 11.3382 1.65662 11.3645C1.52109 11.3909 1.38069 11.3739 1.2554 11.3158C1.13012 11.2578 1.02633 11.1617 0.958816 11.0413C0.891297 10.9208 0.863487 10.7822 0.879342 10.645C1.08223 8.8808 2.04856 7.18385 3.60059 5.86698C4.88958 4.77323 6.45637 4.07924 7.87497 3.95784V1.7501C7.8749 1.66352 7.90052 1.57887 7.94859 1.50686C7.99666 1.43485 8.06501 1.37872 8.145 1.34558C8.22498 1.31244 8.313 1.30377 8.39791 1.32068C8.48282 1.33759 8.56081 1.37931 8.622 1.44057L12.997 5.81557C13.0377 5.8562 13.0699 5.90445 13.092 5.95756C13.114 6.01068 13.1253 6.06761 13.1253 6.1251C13.1253 6.1826 13.114 6.23953 13.092 6.29264C13.0699 6.34575 13.0377 6.394 12.997 6.43463Z" fill="#007AFF"/>
</g>
<defs>
<clipPath id="clip0_2823_4508">
<rect width="14" height="14" fill="white"/>
</clipPath>
</defs>
</svg>
