<svg width="64" height="64" viewBox="0 0 64 64" fill="none" xmlns="http://www.w3.org/2000/svg">
<rect width="64" height="64" rx="20" fill="white" fill-opacity="0.2"/>
<g clip-path="url(#clip0_5380_2724)">
<path d="M42.5 32.0005C42.5006 32.2551 42.4353 32.5056 42.3105 32.7275C42.1856 32.9495 42.0055 33.1353 41.7875 33.267L28.28 41.5302C28.0523 41.6696 27.7914 41.7457 27.5244 41.7507C27.2575 41.7556 26.994 41.6892 26.7613 41.5583C26.5307 41.4294 26.3387 41.2414 26.2049 41.0137C26.0711 40.786 26.0004 40.5268 26 40.2627V23.7383C26.0004 23.4742 26.0711 23.2149 26.2049 22.9872C26.3387 22.7595 26.5307 22.5715 26.7613 22.4427C26.994 22.3117 27.2575 22.2453 27.5244 22.2503C27.7914 22.2552 28.0523 22.3313 28.28 22.4708L41.7875 30.7339C42.0055 30.8656 42.1856 31.0515 42.3105 31.2734C42.4353 31.4953 42.5006 31.7458 42.5 32.0005Z" fill="white"/>
</g>
<defs>
<clipPath id="clip0_5380_2724">
<rect width="24" height="24" fill="white" transform="translate(20 20)"/>
</clipPath>
</defs>
</svg>
