<svg width="60" height="60" viewBox="0 0 60 60" fill="none" xmlns="http://www.w3.org/2000/svg">
<rect width="60" height="60" rx="30" fill="white"/>
<path d="M20.8486 23.9091L24.4921 34.571H24.6391L28.2826 23.9091H30.4175L25.7066 37H23.4246L18.7137 23.9091H20.8486ZM38.7279 27.348C38.6597 26.7429 38.3785 26.2741 37.8841 25.9418C37.3898 25.6051 36.7677 25.4368 36.0177 25.4368C35.4807 25.4368 35.0162 25.522 34.6242 25.6925C34.2322 25.8587 33.9275 26.0888 33.7101 26.3828C33.4971 26.6726 33.3905 27.0028 33.3905 27.3736C33.3905 27.6847 33.463 27.9531 33.6079 28.179C33.757 28.4048 33.9509 28.5945 34.1895 28.7479C34.4324 28.897 34.6924 29.0227 34.9694 29.125C35.2464 29.223 35.5127 29.304 35.7684 29.3679L37.0468 29.7003C37.4644 29.8026 37.8927 29.9411 38.3316 30.1158C38.7705 30.2905 39.1775 30.5206 39.5525 30.8061C39.9275 31.0916 40.23 31.4453 40.4601 31.8672C40.6945 32.2891 40.8117 32.794 40.8117 33.3821C40.8117 34.1236 40.6199 34.782 40.2364 35.3572C39.8572 35.9325 39.3053 36.3864 38.5809 36.7188C37.8607 37.0511 36.9893 37.2173 35.9665 37.2173C34.9864 37.2173 34.1384 37.0618 33.4225 36.7507C32.7066 36.4396 32.1462 35.9986 31.7414 35.4276C31.3366 34.8523 31.1128 34.1705 31.0702 33.3821H33.0518C33.0901 33.8551 33.2435 34.2493 33.512 34.5646C33.7847 34.8757 34.132 35.108 34.5539 35.2614C34.98 35.4105 35.4466 35.4851 35.9537 35.4851C36.512 35.4851 37.0084 35.3977 37.4431 35.223C37.882 35.044 38.2272 34.7969 38.4786 34.4815C38.73 34.1619 38.8557 33.7891 38.8557 33.3629C38.8557 32.9751 38.7449 32.6577 38.5233 32.4105C38.306 32.1634 38.0099 31.9588 37.6349 31.7969C37.2641 31.6349 36.8444 31.4922 36.3756 31.3686L34.8287 30.9467C33.7804 30.6612 32.9495 30.2415 32.3358 29.6875C31.7265 29.1335 31.4218 28.4006 31.4218 27.4886C31.4218 26.7344 31.6263 26.076 32.0354 25.5135C32.4445 24.951 32.9985 24.5142 33.6974 24.2031C34.3962 23.8878 35.1846 23.7301 36.0624 23.7301C36.9488 23.7301 37.7307 23.8857 38.4083 24.1967C39.0901 24.5078 39.627 24.9361 40.0191 25.4815C40.4111 26.0227 40.6157 26.6449 40.6327 27.348H38.7279Z" fill="#86868B"/>
<rect x="0.5" y="0.5" width="59" height="59" rx="29.5" stroke="#1D1D1F" stroke-opacity="0.1"/>
</svg>
