<svg width="32" height="32" viewBox="0 0 32 32" fill="none" xmlns="http://www.w3.org/2000/svg">
<rect width="32" height="32" rx="16" fill="#FF0000"/>
<g clip-path="url(#clip0_1657_974)">
<path d="M25.5583 11.1836C25.4436 10.7616 25.2198 10.3768 24.9093 10.0676C24.5987 9.75842 24.2122 9.53563 23.7883 9.4214C22.2363 9 15.9899 9 15.9899 9C15.9899 9 9.74314 9.01276 8.19111 9.43416C7.76716 9.54839 7.38067 9.77119 7.07013 10.0804C6.75958 10.3896 6.53581 10.7744 6.42111 11.1964C5.95166 13.9418 5.76955 18.1252 6.434 20.7608C6.54872 21.1828 6.77249 21.5676 7.08303 21.8768C7.39358 22.186 7.78006 22.4088 8.204 22.523C9.75603 22.9444 16.0026 22.9444 16.0026 22.9444C16.0026 22.9444 22.2491 22.9444 23.801 22.523C24.225 22.4088 24.6115 22.186 24.922 21.8768C25.2326 21.5676 25.4564 21.1828 25.5711 20.7608C26.0663 18.0115 26.2188 13.8308 25.5583 11.1837V11.1836Z" fill="white"/>
<path d="M14.002 18.9605L19.1838 15.9724L14.002 12.9844V18.9605Z" fill="#FF0000"/>
</g>
<defs>
<clipPath id="clip0_1657_974">
<rect width="20" height="14" fill="white" transform="translate(6 9)"/>
</clipPath>
</defs>
</svg>
