<svg width="120" height="26" viewBox="0 0 120 26" fill="none" xmlns="http://www.w3.org/2000/svg">
<path d="M22 15.6923C22 20.2737 18.4232 24 13.8858 24H11.9208C9.35422 24 6.90262 22.935 5.15321 21.06L0.543605 16.1198C0.18517 15.7356 0 15.2313 0 14.7871C0 13.5087 1.07091 12.9756 1.81183 12.9756C2.30654 12.9756 2.80009 13.1727 3.16535 13.5629L4.70959 15.2181C4.80321 15.3115 4.92782 15.3115 5.0434 15.3115C5.2788 15.3115 5.50945 15.1285 5.50945 14.8491V3.23077C5.50945 2.46635 6.13073 1.84615 6.84448 1.84615C7.61024 1.84615 8.17951 2.46635 8.17951 3.23077V12C8.17951 12.5071 8.70173 12.9231 9.21031 12.9231C9.71889 12.9231 10.083 12.5098 10.083 12.0519L10.135 1.38462C10.135 0.620192 10.7563 0 11.47 0C12.2358 0 12.8051 0.620192 12.8051 1.38462V12C12.8051 12.5071 13.3252 12.9231 13.8338 12.9231C14.3424 12.9231 14.7579 12.5098 14.7579 12.0519L14.7584 3.27115C14.7584 2.50673 15.3796 1.88654 16.0934 1.88654C16.8592 1.88654 17.4284 2.50673 17.4284 3.27115V12.0519C17.4284 12.5071 17.9487 12.9231 18.4573 12.9231C18.9658 12.9231 19.3299 12.5098 19.3299 12.0519V6C19.3299 5.27022 19.9512 4.61538 20.665 4.61538C21.4307 4.61538 22 5.23558 22 6V15.6923Z" fill="#F0F0F0"/>
<path d="M41.264 9.00387C41.264 8.07888 42.0138 7.32903 42.9388 7.32903H43.0534C44.0417 7.32903 44.8429 8.13021 44.8429 9.1185V19.7331C44.8429 20.7214 44.0417 21.5226 43.0534 21.5226H42.9388C42.0138 21.5226 41.264 20.7727 41.264 19.8477C40.1912 21.2292 38.6838 21.92 36.7417 21.92C34.8921 21.92 33.3015 21.2009 31.9698 19.7626C30.6566 18.3054 30 16.5265 30 14.4258C30 12.3441 30.6566 10.5746 31.9698 9.11742C33.3015 7.66022 34.8921 6.93161 36.7417 6.93161C38.6838 6.93161 40.1912 7.62237 41.264 9.00387ZM34.6609 17.3213C35.3823 18.0594 36.2978 18.4284 37.4076 18.4284C38.5173 18.4284 39.4329 18.0594 40.1542 17.3213C40.894 16.5643 41.264 15.5991 41.264 14.4258C41.264 13.2525 40.894 12.2968 40.1542 11.5587C39.4329 10.8017 38.5173 10.4232 37.4076 10.4232C36.2978 10.4232 35.3823 10.8017 34.6609 11.5587C33.9396 12.2968 33.5789 13.2525 33.5789 14.4258C33.5789 15.5991 33.9396 16.5643 34.6609 17.3213Z" fill="#F0F0F0"/>
<path d="M49.8777 21.5226C48.8894 21.5226 48.0883 20.7214 48.0883 19.7331V3.78947C48.0883 2.80117 48.8894 2 49.8777 2C50.866 2 51.6672 2.80117 51.6672 3.78947V19.7331C51.6672 20.7214 50.866 21.5226 49.8777 21.5226Z" fill="#F0F0F0"/>
<path d="M65.4855 9.00387C65.4855 8.07888 66.2354 7.32903 67.1604 7.32903H67.275C68.2633 7.32903 69.0645 8.13021 69.0645 9.1185V19.7331C69.0645 20.7214 68.2633 21.5226 67.275 21.5226H67.1604C66.2354 21.5226 65.4855 20.7727 65.4855 19.8477C64.4128 21.2292 62.9054 21.92 60.9633 21.92C59.1137 21.92 57.5231 21.2009 56.1914 19.7626C54.8782 18.3054 54.2216 16.5265 54.2216 14.4258C54.2216 12.3441 54.8782 10.5746 56.1914 9.11742C57.5231 7.66022 59.1137 6.93161 60.9633 6.93161C62.9054 6.93161 64.4128 7.62237 65.4855 9.00387ZM58.8825 17.3213C59.6039 18.0594 60.5194 18.4284 61.6292 18.4284C62.7389 18.4284 63.6544 18.0594 64.3758 17.3213C65.1156 16.5643 65.4855 15.5991 65.4855 14.4258C65.4855 13.2525 65.1156 12.2968 64.3758 11.5587C63.6544 10.8017 62.7389 10.4232 61.6292 10.4232C60.5194 10.4232 59.6039 10.8017 58.8825 11.5587C58.1612 12.2968 57.8005 13.2525 57.8005 14.4258C57.8005 15.5991 58.1612 16.5643 58.8825 17.3213Z" fill="#F0F0F0"/>
<path d="M82.8247 9.00387C82.8247 8.07888 83.5746 7.32903 84.4995 7.32903H84.6142C85.6025 7.32903 86.4037 8.13021 86.4037 9.1185V24.2105C86.4037 25.1988 85.6025 26 84.6142 26C83.6259 26 82.8247 25.1988 82.8247 24.2105V19.8477C81.7704 21.2292 80.2723 21.92 78.3302 21.92C76.4621 21.92 74.8623 21.2009 73.5306 19.7626C72.2174 18.3054 71.5608 16.5265 71.5608 14.4258C71.5608 12.3441 72.2174 10.5746 73.5306 9.11742C74.8623 7.66022 76.4621 6.93161 78.3302 6.93161C80.2723 6.93161 81.7704 7.62237 82.8247 9.00387ZM76.2217 17.3213C76.9615 18.0594 77.8863 18.4284 78.9961 18.4284C80.1058 18.4284 81.0214 18.0594 81.7427 17.3213C82.464 16.5643 82.8247 15.5991 82.8247 14.4258C82.8247 13.2525 82.464 12.2968 81.7427 11.5587C81.0214 10.8017 80.1058 10.4232 78.9961 10.4232C77.8863 10.4232 76.9615 10.8017 76.2217 11.5587C75.5004 12.2968 75.1397 13.2525 75.1397 14.4258C75.1397 15.5991 75.5004 16.5643 76.2217 17.3213Z" fill="#F0F0F0"/>
<path d="M100.219 9.00387C100.219 8.07888 100.969 7.32903 101.894 7.32903H102.009C102.997 7.32903 103.798 8.13021 103.798 9.1185V19.7331C103.798 20.7214 102.997 21.5226 102.009 21.5226H101.894C100.969 21.5226 100.219 20.7727 100.219 19.8477C99.1466 21.2292 97.6392 21.92 95.6971 21.92C93.8476 21.92 92.2569 21.2009 90.9252 19.7626C89.612 18.3054 88.9554 16.5265 88.9554 14.4258C88.9554 12.3441 89.612 10.5746 90.9252 9.11742C92.2569 7.66022 93.8476 6.93161 95.6971 6.93161C97.6392 6.93161 99.1466 7.62237 100.219 9.00387ZM93.6164 17.3213C94.3377 18.0594 95.2533 18.4284 96.363 18.4284C97.4727 18.4284 98.3883 18.0594 99.1096 17.3213C99.8495 16.5643 100.219 15.5991 100.219 14.4258C100.219 13.2525 99.8495 12.2968 99.1096 11.5587C98.3883 10.8017 97.4727 10.4232 96.363 10.4232C95.2533 10.4232 94.3377 10.8017 93.6164 11.5587C92.895 12.2968 92.5344 13.2525 92.5344 14.4258C92.5344 15.5991 92.895 16.5643 93.6164 17.3213Z" fill="#F0F0F0"/>
<path d="M114.756 6.93161C116.292 6.93161 117.54 7.45204 118.502 8.4929C119.501 9.55269 120 10.991 120 12.8077V19.7331C120 20.7214 119.199 21.5226 118.211 21.5226C117.222 21.5226 116.421 20.7214 116.421 19.7331V13.2619C116.421 12.2968 116.171 11.5682 115.672 11.0761C115.173 10.5841 114.507 10.3381 113.674 10.3381C112.731 10.3381 111.982 10.6314 111.427 11.2181C110.891 11.7858 110.623 12.6658 110.623 13.8581V19.7331C110.623 20.7214 109.821 21.5226 108.833 21.5226C107.845 21.5226 107.044 20.7214 107.044 19.7331V9.1185C107.044 8.13021 107.845 7.32903 108.833 7.32903H109.033C109.911 7.32903 110.623 8.04076 110.623 8.91871C111.473 7.59398 112.851 6.93161 114.756 6.93161Z" fill="#F0F0F0"/>
</svg>
