<svg width="32" height="32" viewBox="0 0 32 32" fill="none" xmlns="http://www.w3.org/2000/svg">
<path d="M16.0052 0C9.32537 0 7.37177 0.00689289 6.99203 0.0384033C5.62121 0.152382 4.7682 0.368277 3.8389 0.831086C3.12272 1.18681 2.55791 1.59915 2.00047 2.17717C0.985278 3.23129 0.370009 4.52814 0.147282 6.06968C0.0389944 6.81805 0.00749261 6.97068 0.00109381 10.7933C-0.00136726 12.0675 0.00109381 13.7444 0.00109381 15.9937C0.00109381 22.67 0.00847704 24.6221 0.040471 25.0013C0.151219 26.3355 0.360411 27.175 0.803404 28.0932C1.65001 29.8509 3.26694 31.1704 5.17181 31.6627C5.83138 31.8326 6.55986 31.9261 7.49507 31.9705C7.8913 31.9877 11.9299 32 15.971 32C20.0121 32 24.0532 31.9951 24.4396 31.9754C25.5224 31.9244 26.1513 31.84 26.8465 31.6603C27.791 31.418 28.6713 30.9724 29.4258 30.3546C30.1803 29.7368 30.7909 28.9617 31.2149 28.0834C31.6493 27.1873 31.8696 26.3158 31.9692 25.0512C31.9909 24.7755 32 20.3796 32 15.9895C32 11.5988 31.9902 7.21095 31.9685 6.93523C31.8676 5.6502 31.6473 4.78613 31.1989 3.87282C30.831 3.12519 30.4224 2.56686 29.8293 1.99598C28.7711 0.984699 27.4765 0.369262 25.9337 0.14672C25.1863 0.0386494 25.0374 0.00664672 21.2129 0H16.0052Z" fill="url(#paint0_radial_1365_1643)"/>
<path d="M16.0052 0C9.32537 0 7.37177 0.00689289 6.99203 0.0384033C5.62121 0.152382 4.7682 0.368277 3.8389 0.831086C3.12272 1.18681 2.55791 1.59915 2.00047 2.17717C0.985278 3.23129 0.370009 4.52814 0.147282 6.06968C0.0389944 6.81805 0.00749261 6.97068 0.00109381 10.7933C-0.00136726 12.0675 0.00109381 13.7444 0.00109381 15.9937C0.00109381 22.67 0.00847704 24.6221 0.040471 25.0013C0.151219 26.3355 0.360411 27.175 0.803404 28.0932C1.65001 29.8509 3.26694 31.1704 5.17181 31.6627C5.83138 31.8326 6.55986 31.9261 7.49507 31.9705C7.8913 31.9877 11.9299 32 15.971 32C20.0121 32 24.0532 31.9951 24.4396 31.9754C25.5224 31.9244 26.1513 31.84 26.8465 31.6603C27.791 31.418 28.6713 30.9724 29.4258 30.3546C30.1803 29.7368 30.7909 28.9617 31.2149 28.0834C31.6493 27.1873 31.8696 26.3158 31.9692 25.0512C31.9909 24.7755 32 20.3796 32 15.9895C32 11.5988 31.9902 7.21095 31.9685 6.93523C31.8676 5.6502 31.6473 4.78613 31.1989 3.87282C30.831 3.12519 30.4224 2.56686 29.8293 1.99598C28.7711 0.984699 27.4765 0.369262 25.9337 0.14672C25.1863 0.0386494 25.0374 0.00664672 21.2129 0H16.0052Z" fill="url(#paint1_radial_1365_1643)"/>
<path d="M16.0007 7C13.5564 7 13.2496 7.01069 12.2896 7.05438C11.3315 7.09825 10.6775 7.24994 10.1052 7.4725C9.51328 7.70238 9.01115 8.00988 8.51089 8.51031C8.01026 9.01056 7.70276 9.51269 7.47213 10.1044C7.249 10.6769 7.09713 11.3311 7.054 12.2888C7.01125 13.2488 7 13.5557 7 16C7 18.4443 7.01088 18.7501 7.05438 19.7101C7.09844 20.6682 7.25013 21.3222 7.47251 21.8944C7.70257 22.4864 8.01007 22.9885 8.51052 23.4888C9.01058 23.9894 9.51271 24.2976 10.1043 24.5275C10.6769 24.7501 11.3311 24.9018 12.2891 24.9456C13.2491 24.9893 13.5556 25 15.9997 25C18.4442 25 18.75 24.9893 19.71 24.9456C20.6681 24.9018 21.3229 24.7501 21.8955 24.5275C22.4873 24.2976 22.9887 23.9894 23.4887 23.4888C23.9894 22.9885 24.2969 22.4864 24.5275 21.8946C24.7487 21.3222 24.9006 20.668 24.9456 19.7103C24.9888 18.7503 25 18.4443 25 16C25 13.5557 24.9888 13.249 24.9456 12.289C24.9006 11.3309 24.7487 10.6769 24.5275 10.1046C24.2969 9.51269 23.9894 9.01056 23.4887 8.51031C22.9881 8.00969 22.4875 7.70219 21.895 7.4725C21.3212 7.24994 20.6668 7.09825 19.7087 7.05438C18.7487 7.01069 18.4431 7 15.998 7H16.0007ZM15.1933 8.62187C15.4329 8.6215 15.7003 8.62187 16.0007 8.62187C18.4037 8.62187 18.6885 8.6305 19.6374 8.67363C20.515 8.71375 20.9912 8.86038 21.3085 8.98356C21.7285 9.14669 22.0279 9.34169 22.3427 9.65669C22.6577 9.97169 22.8527 10.2717 23.0162 10.6917C23.1394 11.0086 23.2862 11.4848 23.3262 12.3623C23.3693 13.3111 23.3787 13.5961 23.3787 15.9979C23.3787 18.3998 23.3693 18.6848 23.3262 19.6336C23.286 20.5111 23.1394 20.9873 23.0162 21.3042C22.8531 21.7242 22.6577 22.0233 22.3427 22.3381C22.0277 22.6531 21.7287 22.8481 21.3085 23.0112C20.9916 23.1349 20.515 23.2812 19.6374 23.3213C18.6887 23.3644 18.4037 23.3738 16.0007 23.3738C13.5974 23.3738 13.3126 23.3644 12.3639 23.3213C11.4864 23.2808 11.0101 23.1342 10.6927 23.011C10.2727 22.8479 9.97266 22.6529 9.65765 22.3379C9.34265 22.0229 9.14765 21.7236 8.98415 21.3034C8.86096 20.9866 8.71414 20.5103 8.67421 19.6328C8.63108 18.6841 8.62245 18.3991 8.62245 15.9957C8.62245 13.5923 8.63108 13.3088 8.67421 12.3601C8.71433 11.4826 8.86096 11.0063 8.98415 10.6891C9.14727 10.2691 9.34265 9.96906 9.65765 9.65406C9.97266 9.33906 10.2727 9.14406 10.6927 8.98056C11.0099 8.85681 11.4864 8.71056 12.3639 8.67025C13.1941 8.63275 13.5159 8.6215 15.1933 8.61963V8.62187ZM20.8048 10.1162C20.5912 10.1162 20.3824 10.1796 20.2048 10.2983C20.0272 10.417 19.8887 10.5857 19.807 10.783C19.7253 10.9804 19.7039 11.1976 19.7456 11.4071C19.7873 11.6166 19.8902 11.809 20.0413 11.9601C20.1924 12.1111 20.3848 12.2139 20.5944 12.2555C20.8039 12.2972 21.0211 12.2757 21.2184 12.1939C21.4157 12.1121 21.5844 11.9736 21.703 11.796C21.8216 11.6183 21.8849 11.4095 21.8848 11.1959C21.8848 10.5996 21.4011 10.1159 20.8048 10.1159V10.1162ZM16.0007 11.3781C13.4482 11.3781 11.3787 13.4476 11.3787 16C11.3787 18.5524 13.4482 20.6209 16.0007 20.6209C18.5531 20.6209 20.622 18.5524 20.622 16C20.622 13.4476 18.5529 11.3781 16.0005 11.3781H16.0007ZM16.0007 13C17.6574 13 19.0007 14.3431 19.0007 16C19.0007 17.6567 17.6574 19 16.0007 19C14.3437 19 13.0006 17.6567 13.0006 16C13.0006 14.3431 14.3437 13 16.0007 13Z" fill="white"/>
<defs>
<radialGradient id="paint0_radial_1365_1643" cx="0" cy="0" r="1" gradientUnits="userSpaceOnUse" gradientTransform="translate(8.50004 34.4647) rotate(-90) scale(31.7144 29.4969)">
<stop stop-color="#FFDD55"/>
<stop offset="0.1" stop-color="#FFDD55"/>
<stop offset="0.5" stop-color="#FF543E"/>
<stop offset="1" stop-color="#C837AB"/>
</radialGradient>
<radialGradient id="paint1_radial_1365_1643" cx="0" cy="0" r="1" gradientUnits="userSpaceOnUse" gradientTransform="translate(-5.36017 2.30523) rotate(78.6806) scale(14.1765 58.4359)">
<stop stop-color="#3771C8"/>
<stop offset="0.128" stop-color="#3771C8"/>
<stop offset="1" stop-color="#6600FF" stop-opacity="0"/>
</radialGradient>
</defs>
</svg>
