<svg width="65" height="64" viewBox="0 0 65 64" fill="none" xmlns="http://www.w3.org/2000/svg">
<g opacity="0.4">
<path d="M59.5 30H56.425C55.9441 24.3463 53.4797 19.0447 49.4675 15.0325C45.4553 11.0203 40.1537 8.55593 34.5 8.075V5C34.5 4.46957 34.2893 3.96086 33.9142 3.58579C33.5391 3.21071 33.0304 3 32.5 3C31.9696 3 31.4609 3.21071 31.0858 3.58579C30.7107 3.96086 30.5 4.46957 30.5 5V8.075C24.8463 8.55593 19.5447 11.0203 15.5325 15.0325C11.5203 19.0447 9.05593 24.3463 8.575 30H5.5C4.96957 30 4.46086 30.2107 4.08579 30.5858C3.71071 30.9609 3.5 31.4696 3.5 32C3.5 32.5304 3.71071 33.0391 4.08579 33.4142C4.46086 33.7893 4.96957 34 5.5 34H8.575C9.05593 39.6537 11.5203 44.9553 15.5325 48.9675C19.5447 52.9797 24.8463 55.4441 30.5 55.925V59C30.5 59.5304 30.7107 60.0391 31.0858 60.4142C31.4609 60.7893 31.9696 61 32.5 61C33.0304 61 33.5391 60.7893 33.9142 60.4142C34.2893 60.0391 34.5 59.5304 34.5 59V55.925C40.1537 55.4441 45.4553 52.9797 49.4675 48.9675C53.4797 44.9553 55.9441 39.6537 56.425 34H59.5C60.0304 34 60.5391 33.7893 60.9142 33.4142C61.2893 33.0391 61.5 32.5304 61.5 32C61.5 31.4696 61.2893 30.9609 60.9142 30.5858C60.5391 30.2107 60.0304 30 59.5 30ZM49.5 34H52.4C51.9251 38.5853 49.8866 42.8674 46.627 46.127C43.3674 49.3866 39.0853 51.4251 34.5 51.9V49C34.5 48.4696 34.2893 47.9609 33.9142 47.5858C33.5391 47.2107 33.0304 47 32.5 47C31.9696 47 31.4609 47.2107 31.0858 47.5858C30.7107 47.9609 30.5 48.4696 30.5 49V51.9C25.9147 51.4251 21.6326 49.3866 18.373 46.127C15.1134 42.8674 13.0749 38.5853 12.6 34H15.5C16.0304 34 16.5391 33.7893 16.9142 33.4142C17.2893 33.0391 17.5 32.5304 17.5 32C17.5 31.4696 17.2893 30.9609 16.9142 30.5858C16.5391 30.2107 16.0304 30 15.5 30H12.6C13.0749 25.4147 15.1134 21.1326 18.373 17.873C21.6326 14.6134 25.9147 12.5749 30.5 12.1V15C30.5 15.5304 30.7107 16.0391 31.0858 16.4142C31.4609 16.7893 31.9696 17 32.5 17C33.0304 17 33.5391 16.7893 33.9142 16.4142C34.2893 16.0391 34.5 15.5304 34.5 15V12.1C39.0853 12.5749 43.3674 14.6134 46.627 17.873C49.8866 21.1326 51.9251 25.4147 52.4 30H49.5C48.9696 30 48.4609 30.2107 48.0858 30.5858C47.7107 30.9609 47.5 31.4696 47.5 32C47.5 32.5304 47.7107 33.0391 48.0858 33.4142C48.4609 33.7893 48.9696 34 49.5 34Z" fill="white"/>
<path d="M32.5 42C38.0228 42 42.5 37.5228 42.5 32C42.5 26.4772 38.0228 22 32.5 22C26.9772 22 22.5 26.4772 22.5 32C22.5 37.5228 26.9772 42 32.5 42Z" fill="white"/>
</g>
</svg>
