<svg width="74" height="70" viewBox="0 0 74 70" fill="none" xmlns="http://www.w3.org/2000/svg">
<path d="M42 5C42 2.23858 39.7614 -1.20706e-07 37 0C34.2386 1.20706e-07 32 2.23858 32 5L42 5ZM33.4645 68.5355C35.4171 70.4882 38.5829 70.4882 40.5355 68.5355L72.3553 36.7157C74.308 34.7631 74.308 31.5973 72.3553 29.6447C70.4027 27.692 67.2369 27.692 65.2843 29.6447L37 57.9289L8.71573 29.6447C6.76311 27.692 3.59728 27.692 1.64466 29.6447C-0.307959 31.5973 -0.307959 34.7631 1.64466 36.7157L33.4645 68.5355ZM32 5L32 65L42 65L42 5L32 5Z" fill="#1ED768"/>
</svg>
