<svg width="64" height="64" viewBox="0 0 64 64" fill="none" xmlns="http://www.w3.org/2000/svg">
<rect width="64" height="64" rx="20" fill="white"/>
<g clip-path="url(#clip0_2336_2258)">
<path d="M48.9183 38.1097C48.9183 45.9285 42.8379 52.2881 35.1248 52.2881H31.7845C27.4215 52.2881 23.2539 50.4705 20.2801 47.2705L12.4441 38.8393C11.8348 38.1836 11.52 37.323 11.52 36.5648C11.52 34.3829 13.3405 33.4731 14.6 33.4731C15.441 33.4731 16.28 33.8095 16.9009 34.4755L19.5259 37.3003C19.6906 37.3909 19.8969 37.4598 20.0934 37.4598C20.4968 37.4598 20.8856 37.1475 20.8856 36.6706V16.842C20.8856 15.5374 21.9418 14.4789 23.1551 14.4789C24.4568 14.4789 25.4245 15.5374 25.4245 16.842V31.8081C25.6049 32.6746 26.3123 33.3835 27.1768 33.3835C28.0414 33.3835 28.6603 32.6782 28.6603 31.8967L28.7487 13.6912C28.7487 12.3866 29.8049 11.3281 31.0182 11.3281C32.3199 11.3281 33.2876 12.3866 33.2876 13.6912V31.8081C33.4645 32.6746 34.1718 33.3835 35.0364 33.3835C35.9009 33.3835 36.6073 32.6781 36.6073 31.8967L36.6081 16.9109C36.6081 15.6063 37.6642 14.5478 38.8775 14.5478C40.1793 14.5478 41.147 15.6063 41.147 16.9109V31.8967C41.324 32.6746 42.0314 33.3835 42.8959 33.3835C43.7605 33.3835 44.3794 32.6782 44.3794 31.8967V21.5681C44.3794 20.2635 45.4355 19.205 46.6488 19.205C47.9506 19.205 48.9183 20.2635 48.9183 21.5681V38.1097Z" fill="#1ED768"/>
</g>
<defs>
<clipPath id="clip0_2336_2258">
<rect width="40.96" height="40.96" fill="white" transform="translate(11.52 11.3281)"/>
</clipPath>
</defs>
</svg>
