<svg width="52" height="52" viewBox="0 0 52 52" fill="none" xmlns="http://www.w3.org/2000/svg">
<g clip-path="url(#clip0_2336_2062)">
<path d="M36.3414 15.6586C34.2961 13.6132 31.6902 12.2203 28.8532 11.656C26.0162 11.0917 23.0756 11.3813 20.4033 12.4883C17.7309 13.5952 15.4468 15.4697 13.8398 17.8748C12.2327 20.2799 11.375 23.1075 11.375 26C11.375 28.8926 12.2327 31.7202 13.8398 34.1252C15.4468 36.5303 17.7309 38.4048 20.4033 39.5118C23.0756 40.6187 26.0162 40.9083 28.8532 40.344C31.6902 39.7797 34.2961 38.3868 36.3414 36.3415C39.0773 33.5951 40.6134 29.8765 40.6134 26C40.6134 22.1235 39.0773 18.4049 36.3414 15.6586ZM29.182 30.773L26 27.591L22.818 30.773C22.607 30.984 22.3209 31.1025 22.0225 31.1025C21.7242 31.1025 21.438 30.984 21.227 30.773C21.0161 30.562 20.8975 30.2759 20.8975 29.9775C20.8975 29.6791 21.0161 29.393 21.227 29.182L24.409 26L21.227 22.818C21.0161 22.6071 20.8975 22.3209 20.8975 22.0225C20.8975 21.7242 21.0161 21.438 21.227 21.227C21.438 21.0161 21.7242 20.8975 22.0225 20.8975C22.3209 20.8975 22.607 21.0161 22.818 21.227L26 24.409L29.182 21.227C29.393 21.0161 29.6791 20.8975 29.9775 20.8975C30.2758 20.8975 30.562 21.0161 30.773 21.227C30.984 21.438 31.1025 21.7242 31.1025 22.0225C31.1025 22.3209 30.984 22.6071 30.773 22.818L27.591 26L30.773 29.182C30.984 29.393 31.1025 29.6791 31.1025 29.9775C31.1025 30.2759 30.984 30.562 30.773 30.773C30.562 30.984 30.2758 31.1025 29.9775 31.1025C29.6791 31.1025 29.393 30.984 29.182 30.773Z" fill="#1ED768"/>
</g>
<defs>
<clipPath id="clip0_2336_2062">
<rect width="36" height="36" fill="white" transform="translate(26 0.544189) rotate(45)"/>
</clipPath>
</defs>
</svg>
