<svg width="64" height="64" viewBox="0 0 64 64" fill="none" xmlns="http://www.w3.org/2000/svg">
<g opacity="0.4">
<path d="M55.05 26L50.05 17.325C49.455 16.3074 48.6135 15.4558 47.6029 14.8488C46.5924 14.2418 45.4454 13.8988 44.2675 13.8515C43.0896 13.8042 41.9188 14.054 40.8628 14.578C39.8068 15.102 38.8997 15.8834 38.225 16.85L33.9 9.35C32.9691 7.74162 31.4389 6.56761 29.6443 6.08499C27.8497 5.60238 25.9371 5.85049 24.325 6.775C23.3214 7.36746 22.4731 8.19009 21.85 9.175C21.0279 8.43807 20.0425 7.90684 18.975 7.625C18.0903 7.37609 17.1642 7.30979 16.253 7.43013C15.3419 7.55047 14.4648 7.85494 13.675 8.325C12.877 8.78116 12.177 9.39055 11.6153 10.1181C11.0536 10.8457 10.6413 11.6772 10.402 12.5646C10.1627 13.4521 10.1012 14.3781 10.221 15.2895C10.3408 16.2008 10.6395 17.0795 11.1 17.875L11.95 19.325C10.9108 19.4137 9.90379 19.7295 9.00001 20.25C7.40262 21.1849 6.23873 22.7124 5.76124 24.5006C5.28376 26.2889 5.53128 28.1933 6.45001 29.8L16.95 48C18.3719 50.5451 20.2854 52.7823 22.5794 54.5814C24.8734 56.3806 27.5021 57.7058 30.3127 58.4802C33.1233 59.2545 36.0599 59.4625 38.9516 59.0921C41.8433 58.7216 44.6326 57.7802 47.1573 56.3223C49.6819 54.8645 51.8917 52.9194 53.6581 50.6001C55.4245 48.2808 56.7123 45.6336 57.4467 42.8122C58.1811 39.9909 58.3474 37.0517 57.936 34.1655C57.5245 31.2794 56.5435 28.5037 55.05 26ZM53.375 41.65C52.7742 43.9358 51.7243 46.0791 50.2864 47.9549C48.8485 49.8306 47.0514 51.4012 45 52.575C40.8647 54.96 35.9522 55.6071 31.3404 54.3745C26.7285 53.1419 22.794 50.1301 20.4 46L9.90001 27.8C9.50219 27.1104 9.39458 26.2911 9.60087 25.5222C9.80716 24.7533 10.3104 24.0978 11 23.7C11.6896 23.3022 12.5089 23.1946 13.2778 23.4009C14.0467 23.6072 14.7022 24.1104 15.1 24.8L20.6 34.325C20.7313 34.5532 20.9063 34.7532 21.115 34.9138C21.3236 35.0743 21.5618 35.1922 21.816 35.2607C22.0702 35.3292 22.3354 35.3469 22.5965 35.3129C22.8575 35.2789 23.1093 35.1938 23.3375 35.0625C23.5657 34.9312 23.7658 34.7562 23.9263 34.5476C24.0869 34.3389 24.2047 34.1007 24.2732 33.8465C24.3417 33.5923 24.3594 33.3271 24.3254 33.066C24.2914 32.805 24.2063 32.5532 24.075 32.325L18.575 22.8L14.575 15.875C14.1775 15.1864 14.0696 14.3681 14.275 13.6C14.3743 13.2175 14.5493 12.8589 14.7898 12.5454C15.0303 12.2319 15.3313 11.9699 15.675 11.775C16.3636 11.3775 17.1819 11.2696 17.95 11.475C18.7142 11.6927 19.3668 12.1933 19.775 12.875L21.75 16.35H21.775L28.275 27.6C28.4438 27.9083 28.6939 28.1645 28.9979 28.3407C29.302 28.517 29.6486 28.6067 30 28.6C30.3529 28.607 30.7003 28.5114 31 28.325C31.4563 28.0586 31.7886 27.6226 31.9244 27.112C32.0603 26.6014 31.9886 26.0579 31.725 25.6L25.225 14.35C24.8272 13.6604 24.7196 12.8411 24.9259 12.0722C25.1322 11.3033 25.6354 10.6478 26.325 10.25C27.0146 9.85218 27.8339 9.74457 28.6028 9.95086C29.3717 10.1572 30.0272 10.6604 30.425 11.35L37.925 24.325L39.5 27.075C37.3214 28.8881 35.8532 31.4125 35.3546 34.2027C34.856 36.9929 35.3591 39.8696 36.775 42.325C37.0607 42.7395 37.4922 43.031 37.9834 43.1413C38.4745 43.2516 38.9893 43.1727 39.4248 42.9202C39.8603 42.6677 40.1846 42.2603 40.3329 41.7793C40.4812 41.2982 40.4427 40.7789 40.225 40.325C39.1649 38.4882 38.8775 36.3056 39.426 34.257C39.9745 32.2084 41.314 30.4614 43.15 29.4C43.3811 29.2682 43.5839 29.0922 43.7469 28.882C43.9099 28.6718 44.0299 28.4316 44.1 28.175C44.2221 27.6675 44.1508 27.1328 43.9 26.675L41.4 22.325C41.1105 21.8116 40.9787 21.2242 41.0211 20.6363C41.0634 20.0484 41.2779 19.486 41.638 19.0193C41.998 18.5526 42.4875 18.2023 43.0454 18.0121C43.6033 17.822 44.2049 17.8003 44.775 17.95C45.1508 18.0493 45.5033 18.2219 45.8122 18.4579C46.1211 18.6938 46.3804 18.9885 46.575 19.325L51.575 28C52.7703 30.0402 53.5454 32.2988 53.8545 34.6431C54.1636 36.9873 54.0006 39.3697 53.375 41.65ZM21.925 61.15C21.7362 61.4115 21.4884 61.6247 21.2017 61.7724C20.915 61.9201 20.5975 61.9981 20.275 62C19.8662 61.995 19.4673 61.8736 19.125 61.65C15.4888 59.1375 12.4642 55.8395 10.275 52C10.1185 51.7729 10.0106 51.5159 9.95818 51.2452C9.90575 50.9744 9.90989 50.6957 9.97034 50.4266C10.0308 50.1575 10.1462 49.9038 10.3094 49.6815C10.4726 49.4592 10.68 49.273 10.9186 49.1347C11.1573 48.9963 11.4219 48.9089 11.6959 48.8777C11.97 48.8466 12.2475 48.8725 12.511 48.9537C12.7746 49.035 13.0185 49.1699 13.2274 49.3499C13.4363 49.53 13.6057 49.7513 13.725 50C15.6354 53.3238 18.2666 56.1771 21.425 58.35C21.8596 58.6573 22.1558 59.1234 22.2494 59.6474C22.3429 60.1715 22.2264 60.7112 21.925 61.15ZM42 7.75C42 7.21957 42.2107 6.71086 42.5858 6.33579C42.9609 5.96071 43.4696 5.75 44 5.75C46.6337 5.75336 49.2204 6.44779 51.5016 7.76389C53.7829 9.08 55.6788 10.9717 57 13.25C57.1329 13.4774 57.2189 13.729 57.2531 13.9901C57.2872 14.2513 57.2688 14.5166 57.199 14.7705C57.1291 15.0244 57.0091 15.2617 56.8462 15.4686C56.6832 15.6755 56.4805 15.8476 56.25 15.975C55.9515 16.1642 55.6033 16.2599 55.25 16.25C54.9001 16.2488 54.5567 16.1558 54.254 15.9803C53.9513 15.8048 53.7 15.553 53.525 15.25C52.5597 13.578 51.1713 12.1895 49.4993 11.224C47.8273 10.2586 45.9307 9.75022 44 9.75C43.4696 9.75 42.9609 9.53929 42.5858 9.16421C42.2107 8.78914 42 8.28043 42 7.75Z" fill="white"/>
</g>
</svg>
