<svg width="65" height="64" viewBox="0 0 65 64" fill="none" xmlns="http://www.w3.org/2000/svg">
<path d="M19.1034 34.0417L18.4825 33.3736L18.4803 33.3712C17.4512 32.2674 16.0541 31.7073 14.6582 31.7073C13.5851 31.7073 12.3403 32.0791 11.3298 32.9042C10.2571 33.7802 9.5 35.1322 9.5 36.8775C9.5 38.1655 10.0177 39.5329 10.9825 40.5712L10.9826 40.5712L19.0174 49.2165C22.4447 52.9044 27.2486 55 32.279 55H35.7041C44.7791 55 51.8478 47.521 51.8478 38.4615V21.5C51.8478 19.1635 50.0631 17.0769 47.5208 17.0769C45.9866 17.0769 44.6469 17.9071 43.8792 19.1292V16.7245C43.8792 14.388 42.0944 12.3014 39.5521 12.3014C37.9559 12.3014 36.5703 13.2 35.8203 14.5038V13.4231C35.8203 11.0866 34.0355 9 31.4932 9C29.0932 9 27.1693 11.0315 27.1662 13.4173C27.1662 13.4192 27.1662 13.4212 27.1662 13.4231L27.1614 14.3984C26.4346 13.1251 25.0949 12.2308 23.4305 12.2308C21.0285 12.2308 19.1034 14.2656 19.1034 16.6538V34.0417Z" stroke="#1ED768" stroke-width="4"/>
</svg>
