<svg width="64" height="64" viewBox="0 0 64 64" fill="none" xmlns="http://www.w3.org/2000/svg">
<path d="M20 58C22.2091 58 24 56.2091 24 54C24 51.7909 22.2091 50 20 50C17.7909 50 16 51.7909 16 54C16 56.2091 17.7909 58 20 58Z" fill="#1ED768"/>
<path d="M46 58C48.2091 58 50 56.2091 50 54C50 51.7909 48.2091 50 46 50C43.7909 50 42 51.7909 42 54C42 56.2091 43.7909 58 46 58Z" fill="#1ED768"/>
<path d="M10.575 18H55.425L48.825 41.1C48.5895 41.9384 48.0852 42.6762 47.3897 43.2001C46.6941 43.724 45.8458 44.0051 44.975 44H21.025C20.1542 44.0051 19.3059 43.724 18.6103 43.2001C17.9148 42.6762 17.4105 41.9384 17.175 41.1L8.125 9.45C8.00541 9.03189 7.75279 8.66414 7.40543 8.40249C7.05806 8.14084 6.63488 7.99954 6.2 8H2" stroke="#1ED768" stroke-width="4" stroke-linecap="round" stroke-linejoin="round"/>
</svg>
