<svg width="65" height="64" viewBox="0 0 65 64" fill="none" xmlns="http://www.w3.org/2000/svg">
<g opacity="0.4">
<path d="M26.5 4H38.5C39.0304 4 39.5391 3.78929 39.9142 3.41421C40.2893 3.03914 40.5 2.53043 40.5 2C40.5 1.46957 40.2893 0.960859 39.9142 0.585786C39.5391 0.210714 39.0304 0 38.5 0L26.5 0C25.9696 0 25.4609 0.210714 25.0858 0.585786C24.7107 0.960859 24.5 1.46957 24.5 2C24.5 2.53043 24.7107 3.03914 25.0858 3.41421C25.4609 3.78929 25.9696 4 26.5 4Z" fill="white"/>
<path d="M32.5 8C27.7533 8 23.1131 9.40758 19.1663 12.0447C15.2195 14.6819 12.1434 18.4302 10.3269 22.8156C8.5104 27.201 8.03512 32.0266 8.96116 36.6822C9.88721 41.3377 12.173 45.6141 15.5294 48.9706C18.8859 52.327 23.1623 54.6128 27.8178 55.5388C32.4734 56.4649 37.299 55.9896 41.6844 54.1731C46.0698 52.3566 49.8181 49.2805 52.4553 45.3337C55.0924 41.3869 56.5 36.7468 56.5 32C56.4868 25.6389 53.954 19.542 49.456 15.044C44.958 10.546 38.8611 8.01321 32.5 8ZM43.825 23.525L33.925 33.425C33.5427 33.7946 33.0318 34.0013 32.5 34.0013C31.9682 34.0013 31.4573 33.7946 31.075 33.425C30.6994 33.0458 30.4888 32.5337 30.4888 32C30.4888 31.4663 30.6994 30.9542 31.075 30.575L40.975 20.675C41.1543 20.4565 41.3774 20.278 41.6299 20.1509C41.8824 20.0238 42.1587 19.951 42.441 19.9371C42.7233 19.9233 43.0054 19.9687 43.2691 20.0704C43.5328 20.1721 43.7723 20.3279 43.9722 20.5278C44.1721 20.7277 44.3279 20.9672 44.4296 21.2309C44.5314 21.4946 44.5768 21.7767 44.5629 22.059C44.549 22.3413 44.4762 22.6176 44.3491 22.8701C44.222 23.1226 44.0435 23.3457 43.825 23.525Z" fill="white"/>
</g>
</svg>
