<svg width="64" height="64" viewBox="0 0 64 64" fill="none" xmlns="http://www.w3.org/2000/svg">
<rect width="64" height="64" rx="20" fill="#F63636"/>
<g clip-path="url(#clip0_2336_4602)">
<path d="M22.882 12.16C23.2257 12.281 23.5041 12.475 23.627 12.8361C23.844 13.4776 23.3678 14.1229 22.6631 14.1344C22.1197 14.1441 21.5763 14.1344 21.0329 14.1364C20.1151 14.1364 19.1973 14.1229 18.2794 14.1421C15.9829 14.1882 14.1837 15.984 14.1453 18.2792C14.1223 19.7216 14.1377 21.164 14.1396 22.6083C14.1396 22.9905 14.0071 23.3055 13.6807 23.5187C13.1507 23.8644 12.4614 23.632 12.2252 23.0366C12.2041 22.9847 12.181 22.9348 12.1599 22.8849C12.1599 21.235 12.1599 19.5852 12.1599 17.9354C12.1714 17.8874 12.1868 17.8394 12.1926 17.7913C12.446 15.0679 14.3777 12.886 17.0524 12.3079C17.3424 12.2445 17.64 12.2081 17.9338 12.16H22.882Z" fill="white" stroke="white"/>
<path d="M46.0643 12.16C46.3716 12.21 46.6808 12.2484 46.9843 12.3136C49.6251 12.8801 51.5937 15.1305 51.8069 17.8226C51.8261 18.0722 51.8357 18.3219 51.8376 18.5715C51.8395 19.9406 51.8414 21.3077 51.8376 22.6768C51.8376 23.1626 51.5053 23.5639 51.0444 23.6599C50.6007 23.7521 50.1398 23.5217 49.9574 23.0877C49.8921 22.9322 49.8652 22.7498 49.8652 22.5789C49.8575 21.204 49.8613 19.8292 49.8613 18.4563C49.8613 17.1563 49.4023 16.0522 48.4247 15.1862C47.7045 14.5468 46.8518 14.1781 45.8895 14.157C44.3915 14.1224 42.8896 14.1416 41.3915 14.1416C41.0074 14.1416 40.6924 14.0092 40.4812 13.6827C40.1355 13.1528 40.3679 12.4634 40.9632 12.2272C41.0151 12.2061 41.065 12.185 41.115 12.162C42.7647 12.162 44.4145 12.162 46.0643 12.162V12.16Z" fill="white" stroke="white"/>
<path d="M12.1599 41.1177C12.2809 40.7741 12.4749 40.4957 12.8378 40.3729C13.4792 40.1559 14.1264 40.632 14.136 41.3384C14.1456 42.0122 14.136 42.6879 14.1379 43.3617C14.1379 44.1488 14.1264 44.9358 14.1436 45.7229C14.1916 48.0187 15.9872 49.8155 18.2858 49.8539C19.728 49.8769 21.1721 49.8596 22.6162 49.8616C23.1098 49.8616 23.49 50.1226 23.6302 50.543C23.8376 51.1727 23.3709 51.8292 22.6988 51.8349C21.7118 51.8426 20.7247 51.8407 19.7376 51.8349C19.1001 51.8311 18.4606 51.8484 17.8269 51.8004C15.1326 51.5969 12.8839 49.6235 12.3155 46.984C12.2502 46.6807 12.2118 46.3698 12.1618 46.0645V41.1177H12.1599Z" fill="white" stroke="white"/>
<path d="M43.6422 49.8525C44.3348 49.8525 45.0294 49.8659 45.722 49.8506C48.0053 49.8007 49.803 48.0077 49.8433 45.7214C49.8683 44.2797 49.8491 42.8361 49.851 41.3925C49.851 40.901 50.0928 40.5325 50.5053 40.3789C51.1077 40.1562 51.8119 40.592 51.8176 41.2351C51.8292 42.8783 51.8771 44.5235 51.7812 46.161C51.6277 48.764 49.7915 50.9352 47.2742 51.5975C46.7428 51.7376 46.1806 51.8106 45.6319 51.8221C44.1909 51.8528 42.7481 51.8355 41.3053 51.8317C40.8333 51.8317 40.4361 51.4977 40.3402 51.0427C40.2462 50.5954 40.4841 50.1232 40.9235 49.9447C41.0693 49.8851 41.2381 49.8621 41.3974 49.8602C42.1456 49.8525 42.8958 49.8563 43.6441 49.8563V49.8525H43.6422Z" fill="white" stroke="white"/>
<path d="M32.3471 44.16C29.2284 44.1619 26.8018 43.3061 24.7421 41.5355C24.2439 41.1066 24.1771 40.481 24.592 40.0325C25.0006 39.5878 25.6927 39.5564 26.1889 39.9813C27.1666 40.8214 28.2632 41.4785 29.5515 41.7795C32.5702 42.4897 35.3345 42.047 37.7153 40.0502C38.053 39.7669 38.4115 39.6036 38.8618 39.7177C39.6895 39.9262 39.9626 40.9001 39.3372 41.4568C38.1926 42.4779 36.8751 43.2314 35.37 43.6839C34.2755 44.0124 33.1539 44.1639 32.3471 44.16Z" fill="white" stroke="white"/>
<path d="M33.9182 30.5411C33.9182 31.7551 33.9221 32.9692 33.9182 34.1833C33.9143 35.1739 33.5904 36.0085 32.7975 36.6012C32.3363 36.9458 31.8123 37.0975 31.2509 37.1119C30.933 37.1201 30.6092 37.1324 30.2951 37.0893C29.7731 37.0155 29.4002 36.4966 29.4433 35.9593C29.4865 35.4118 29.9183 34.977 30.4423 34.9626C30.6661 34.9565 30.8898 34.9626 31.1136 34.9606C31.6454 34.9544 31.8515 34.7391 31.8515 34.1772C31.8515 31.7018 31.8515 29.2265 31.8515 26.7511C31.8515 26.3307 32.0046 25.9964 32.3441 25.7729C32.6778 25.5535 33.0311 25.5412 33.3804 25.7462C33.7396 25.9575 33.9182 26.2877 33.9182 26.7163C33.9221 27.9898 33.9182 29.2654 33.9182 30.539V30.5411Z" fill="white" stroke="white"/>
<path d="M22.3999 28.154C22.3999 27.6863 22.3999 27.2207 22.3999 26.7531C22.3999 26.3552 22.5692 26.0188 22.9797 25.7829C23.7236 25.3583 24.7498 25.7111 24.9319 26.4495C24.9396 26.4823 24.9499 26.5152 24.9499 26.548C24.9499 27.6269 24.9806 28.7078 24.9345 29.7867C24.9114 30.3405 24.3111 30.7261 23.6646 30.72C23.0233 30.7138 22.464 30.3056 22.4256 29.7539C22.3871 29.2226 22.4179 28.6873 22.4179 28.154H22.4025H22.3999Z" fill="white" stroke="white"/>
<path d="M39.6847 28.1478C39.6847 27.635 39.6733 27.1202 39.6886 26.6074C39.7019 26.1336 40.0307 25.7172 40.4341 25.6229C41.0114 25.4895 41.5696 25.9551 41.5849 26.632C41.6059 27.6514 41.604 28.6729 41.5849 29.6944C41.5734 30.2892 41.128 30.7281 40.6138 30.7199C40.1034 30.7097 39.6981 30.2502 39.6847 29.6492C39.6752 29.1488 39.6828 28.6483 39.6828 28.1478H39.6866H39.6847Z" fill="white" stroke="white"/>
</g>
<defs>
<clipPath id="clip0_2336_4602">
<rect width="40.96" height="40.96" fill="white" transform="translate(11.52 11.52)"/>
</clipPath>
</defs>
</svg>
