<svg width="64" height="64" viewBox="0 0 64 64" fill="none" xmlns="http://www.w3.org/2000/svg">
<rect width="64" height="64" rx="20" fill="#F63636"/>
<g clip-path="url(#clip0_2336_4589)">
<path d="M15.84 14.72C13.4712 14.72 11.52 16.6712 11.52 19.04V44.96C11.52 47.3288 13.4712 49.28 15.84 49.28H30.24C32.6088 49.28 34.56 47.3288 34.56 44.96V19.04C34.56 16.6712 32.6088 14.72 30.24 14.72H15.84ZM15.84 17.6H30.24C31.0392 17.6 31.68 18.2408 31.68 19.04V44.96C31.68 45.7592 31.0392 46.4 30.24 46.4H15.84C15.0408 46.4 14.4 45.7592 14.4 44.96V19.04C14.4 18.2408 15.0408 17.6 15.84 17.6ZM23.04 42.08C22.6581 42.08 22.2918 42.2317 22.0218 42.5018C21.7517 42.7718 21.6 43.1381 21.6 43.52C21.6 43.9019 21.7517 44.2682 22.0218 44.5383C22.2918 44.8083 22.6581 44.96 23.04 44.96C23.4219 44.96 23.7882 44.8083 24.0583 44.5383C24.3283 44.2682 24.48 43.9019 24.48 43.52C24.48 43.1381 24.3283 42.7718 24.0583 42.5018C23.7882 42.2317 23.4219 42.08 23.04 42.08Z" fill="white"/>
<path d="M40.9601 26.5441C42.4093 28.0546 43.2185 30.0668 43.2185 32.1601C43.2185 34.2533 42.4093 36.2656 40.9601 37.7761" stroke="white" stroke-width="3" stroke-linecap="round" stroke-linejoin="round"/>
<path d="M46.3998 21.12C49.2809 24.0726 50.8936 28.0346 50.8936 32.16C50.8936 36.2854 49.2809 40.2473 46.3998 43.2" stroke="white" stroke-width="3" stroke-linecap="round" stroke-linejoin="round"/>
</g>
<defs>
<clipPath id="clip0_2336_4589">
<rect width="40.96" height="40.96" fill="white" transform="translate(11.52 11.52)"/>
</clipPath>
</defs>
</svg>
