<svg width="64" height="64" viewBox="0 0 64 64" fill="none" xmlns="http://www.w3.org/2000/svg">
<rect width="64" height="64" rx="20" fill="#F63636"/>
<path d="M28.1599 17.92H20.4799C19.801 17.92 19.1498 18.1898 18.6697 18.6699C18.1896 19.1499 17.9199 19.8011 17.9199 20.48V28.16C17.9199 28.839 18.1896 29.4901 18.6697 29.9702C19.1498 30.4503 19.801 30.72 20.4799 30.72H28.1599C28.8389 30.72 29.49 30.4503 29.9701 29.9702C30.4502 29.4901 30.7199 28.839 30.7199 28.16V20.48C30.7199 19.8011 30.4502 19.1499 29.9701 18.6699C29.49 18.1898 28.8389 17.92 28.1599 17.92ZM28.1599 28.16H20.4799V20.48H28.1599V28.16ZM28.1599 33.28H20.4799C19.801 33.28 19.1498 33.5498 18.6697 34.0299C18.1896 34.5099 17.9199 35.1611 17.9199 35.84V43.52C17.9199 44.199 18.1896 44.8501 18.6697 45.3302C19.1498 45.8103 19.801 46.08 20.4799 46.08H28.1599C28.8389 46.08 29.49 45.8103 29.9701 45.3302C30.4502 44.8501 30.7199 44.199 30.7199 43.52V35.84C30.7199 35.1611 30.4502 34.5099 29.9701 34.0299C29.49 33.5498 28.8389 33.28 28.1599 33.28ZM28.1599 43.52H20.4799V35.84H28.1599V43.52ZM43.5199 17.92H35.8399C35.161 17.92 34.5098 18.1898 34.0297 18.6699C33.5496 19.1499 33.2799 19.8011 33.2799 20.48V28.16C33.2799 28.839 33.5496 29.4901 34.0297 29.9702C34.5098 30.4503 35.161 30.72 35.8399 30.72H43.5199C44.1989 30.72 44.85 30.4503 45.3301 29.9702C45.8102 29.4901 46.0799 28.839 46.0799 28.16V20.48C46.0799 19.8011 45.8102 19.1499 45.3301 18.6699C44.85 18.1898 44.1989 17.92 43.5199 17.92ZM43.5199 28.16H35.8399V20.48H43.5199V28.16ZM33.2799 39.68V34.56C33.2799 34.2206 33.4148 33.895 33.6548 33.6549C33.8949 33.4149 34.2204 33.28 34.5599 33.28C34.8994 33.28 35.225 33.4149 35.465 33.6549C35.7051 33.895 35.8399 34.2206 35.8399 34.56V39.68C35.8399 40.0195 35.7051 40.3451 35.465 40.5851C35.225 40.8252 34.8994 40.96 34.5599 40.96C34.2204 40.96 33.8949 40.8252 33.6548 40.5851C33.4148 40.3451 33.2799 40.0195 33.2799 39.68ZM46.0799 37.12C46.0799 37.4595 45.9451 37.7851 45.705 38.0251C45.465 38.2652 45.1394 38.4 44.7999 38.4H40.9599V44.8C40.9599 45.1395 40.8251 45.4651 40.585 45.7051C40.345 45.9452 40.0194 46.08 39.6799 46.08H34.5599C34.2204 46.08 33.8949 45.9452 33.6548 45.7051C33.4148 45.4651 33.2799 45.1395 33.2799 44.8C33.2799 44.4606 33.4148 44.135 33.6548 43.8949C33.8949 43.6549 34.2204 43.52 34.5599 43.52H38.3999V34.56C38.3999 34.2206 38.5348 33.895 38.7748 33.6549C39.0149 33.4149 39.3404 33.28 39.6799 33.28C40.0194 33.28 40.345 33.4149 40.585 33.6549C40.8251 33.895 40.9599 34.2206 40.9599 34.56V35.84H44.7999C45.1394 35.84 45.465 35.9749 45.705 36.2149C45.9451 36.455 46.0799 36.7806 46.0799 37.12ZM46.0799 42.24V44.8C46.0799 45.1395 45.9451 45.4651 45.705 45.7051C45.465 45.9452 45.1394 46.08 44.7999 46.08C44.4604 46.08 44.1349 45.9452 43.8948 45.7051C43.6548 45.4651 43.5199 45.1395 43.5199 44.8V42.24C43.5199 41.9006 43.6548 41.575 43.8948 41.3349C44.1349 41.0949 44.4604 40.96 44.7999 40.96C45.1394 40.96 45.465 41.0949 45.705 41.3349C45.9451 41.575 46.0799 41.9006 46.0799 42.24Z" fill="white"/>
</svg>
