<svg width="64" height="64" viewBox="0 0 64 64" fill="none" xmlns="http://www.w3.org/2000/svg">
<rect width="64" height="64" rx="20" fill="#F63636"/>
<path d="M15.7866 41.3867V22.6133C15.7866 20.736 17.3226 19.2 19.2 19.2H44.8C46.6773 19.2 48.2133 20.736 48.2133 22.6133V41.3867C48.2133 43.264 46.6773 44.8 44.8 44.8H19.2C17.3226 44.8 15.7866 43.264 15.7866 41.3867Z" fill="white"/>
<path d="M48.2133 29.44V27.7333H37.9733C37.0346 27.7333 36.2666 26.9653 36.2666 26.0267C36.2666 25.088 37.0346 24.32 37.9733 24.32H38.8266V22.6133H37.9733C36.096 22.6133 34.56 24.1493 34.56 26.0267C34.56 27.904 36.096 29.44 37.9733 29.44H40.5333V34.56H37.9733C35.584 34.56 33.7066 36.4373 33.7066 38.8267C33.7066 41.216 35.584 43.0933 37.9733 43.0933H39.68V41.3867H37.9733C36.5226 41.3867 35.4133 40.2773 35.4133 38.8267C35.4133 37.376 36.5226 36.2667 37.9733 36.2667H48.2133V34.56H42.24V29.44H48.2133ZM26.0266 34.56H23.4666V29.44H26.0266C27.904 29.44 29.44 27.904 29.44 26.0267C29.44 24.1493 27.904 22.6133 26.0266 22.6133H23.4666V24.32H26.0266C26.9653 24.32 27.7333 25.088 27.7333 26.0267C27.7333 26.9653 26.9653 27.7333 26.0266 27.7333H15.7866V29.44H21.76V34.56H15.7866V36.2667H26.0266C27.4773 36.2667 28.5866 37.376 28.5866 38.8267C28.5866 40.2773 27.4773 41.3867 26.0266 41.3867H24.32V43.0933H26.0266C28.416 43.0933 30.2933 41.216 30.2933 38.8267C30.2933 36.4373 28.416 34.56 26.0266 34.56Z" fill="#F63636"/>
</svg>
