<svg width="64" height="64" viewBox="0 0 64 64" fill="none" xmlns="http://www.w3.org/2000/svg">
<g clip-path="url(#clip0_3570_17437)">
<mask id="mask0_3570_17437" style="mask-type:luminance" maskUnits="userSpaceOnUse" x="0" y="13" width="65" height="38">
<path d="M64.0581 13H0V50.3107H64.0581V13Z" fill="white"/>
</mask>
<g mask="url(#mask0_3570_17437)">
<path d="M63.8833 48.8958C63.8639 48.7602 63.8445 48.6439 63.8251 48.5082C63.6894 47.7135 63.5344 46.9188 63.3406 46.1242C63.0111 44.748 62.5846 43.4107 62.0807 42.1314C61.6543 41.0267 61.1697 39.9606 60.627 38.9334C59.9293 37.6154 59.154 36.3362 58.2818 35.1151C57.2158 33.6227 56.0335 32.2465 54.7542 30.9479C54.2115 30.4052 53.6495 29.8819 53.068 29.3973C51.8081 28.3119 50.4708 27.3234 49.0559 26.4513C49.0753 26.4319 49.0753 26.4125 49.0946 26.3931C49.7343 25.2689 50.3932 24.1642 51.0329 23.04C51.6725 21.9546 52.2927 20.8692 52.9323 19.7644C53.3781 18.9891 53.8433 18.1944 54.2891 17.4191C54.4054 17.2253 54.4829 17.0509 54.541 16.8377C54.7155 16.295 54.7349 15.7135 54.5798 15.1708C54.541 15.0351 54.5023 14.8995 54.4441 14.7832C54.386 14.6475 54.3278 14.5312 54.2503 14.4149C54.0177 14.0079 53.6688 13.659 53.2231 13.407C52.8354 13.1745 52.409 13.0388 51.9632 13C51.7694 12.9806 51.5949 12.9806 51.4011 13C51.2461 13.0194 51.091 13.0388 50.9553 13.0775C50.4126 13.2132 49.9281 13.5039 49.5404 13.9304C49.4048 14.0854 49.2691 14.2599 49.1722 14.4343C48.7264 15.2096 48.2612 16.0043 47.8154 16.7795L45.916 20.0551C45.2764 21.1793 44.6174 22.2841 43.9777 23.4082C43.9002 23.5245 43.8421 23.6602 43.7645 23.7765C43.6676 23.7377 43.5707 23.699 43.4738 23.6602C39.9075 22.3035 36.0504 21.5669 31.9995 21.5669C31.8833 21.5669 31.7864 21.5669 31.6701 21.5669C28.0844 21.6057 24.6343 22.2259 21.3975 23.3501C21.0292 23.4858 20.661 23.6215 20.2927 23.7571C20.2346 23.6408 20.157 23.5245 20.0989 23.4082C19.4593 22.2841 18.8003 21.1793 18.1607 20.0551C17.5211 18.9697 16.9008 17.8843 16.2612 16.7795C15.8154 16.0043 15.3503 15.2096 14.9045 14.4343C14.7882 14.2405 14.6719 14.0854 14.5362 13.9304C14.1486 13.5039 13.6446 13.2132 13.1213 13.0775C12.9662 13.0388 12.8112 13.0194 12.6755 13C12.4817 12.9806 12.3072 12.9806 12.1134 13C11.6676 13.0388 11.2412 13.1745 10.8536 13.407C10.4272 13.659 10.0783 14.0079 9.82632 14.4149C9.7488 14.5312 9.69065 14.6475 9.6325 14.7832C9.57436 14.9188 9.53559 15.0351 9.49682 15.1708C9.36115 15.7135 9.36115 16.2756 9.53559 16.8377C9.59374 17.0315 9.69065 17.2253 9.78756 17.4191C10.2333 18.1944 10.6985 18.9891 11.1443 19.7644C11.7839 20.8498 12.4042 21.9352 13.0438 23.04C13.6834 24.1642 14.3424 25.2689 14.982 26.3931L15.0014 26.4125C13.7028 27.2265 12.4623 28.1181 11.28 29.1066C10.5822 29.6881 9.90385 30.3083 9.26424 30.9479C7.96564 32.2271 6.8027 33.6227 5.73668 35.1151C4.86448 36.3362 4.08919 37.596 3.39143 38.9334C2.84873 39.9606 2.36418 41.0267 1.93777 42.1314C1.43383 43.4301 1.00742 44.7674 0.677927 46.1242C0.484105 46.8995 0.329048 47.6941 0.193372 48.5082C0.17399 48.6439 0.15461 48.7602 0.135228 48.8958C0.0576994 49.361 -0.000447173 49.8262 -0.0585938 50.3107H63.9995C63.9995 49.8262 63.9414 49.361 63.8833 48.8958Z" fill="white"/>
<path d="M48.6871 41.4337C49.9664 40.5809 50.1602 38.6039 49.0942 37.0339C48.0475 35.4446 46.1481 34.8631 44.8688 35.7159C43.5896 36.5688 43.3958 38.5457 44.4618 40.1157C45.5085 41.705 47.4079 42.2865 48.6871 41.4337Z" fill="#1D1D1F"/>
<path d="M19.6535 40.1351C20.7001 38.5458 20.5257 36.5882 19.2465 35.7353C17.9672 34.8825 16.0678 35.464 15.0212 37.0533C13.9745 38.6427 14.149 40.6003 15.4282 41.4531C16.7074 42.3059 18.5875 41.7051 19.6535 40.1351Z" fill="#1D1D1F"/>
</g>
</g>
<defs>
<clipPath id="clip0_3570_17437">
<rect width="64" height="64" fill="white"/>
</clipPath>
</defs>
</svg>
