<svg width="64" height="64" viewBox="0 0 64 64" fill="none" xmlns="http://www.w3.org/2000/svg">
<g clip-path="url(#clip0_3570_17424)">
<path d="M49.9553 61.44C46.4708 64.8178 42.6664 64.2844 39.0042 62.6844C35.1286 61.0489 31.573 60.9778 27.4842 62.6844C22.3642 64.8889 19.6619 64.2489 16.6042 61.44C-0.746952 43.5556 1.81305 16.32 21.5108 15.3244C26.3108 15.5733 29.653 17.9556 32.4619 18.1689C36.6575 17.3156 40.6753 14.8622 45.1553 15.1822C50.5242 15.6089 54.5775 17.7422 57.2442 21.5822C46.1508 28.2311 48.7819 42.8444 58.9508 46.9333C56.9242 52.2667 54.2931 57.5644 49.9197 61.4756L49.9553 61.44ZM32.1064 15.1111C31.573 7.18222 38.0086 0.64 45.4042 0C46.4353 9.17333 37.0842 16 32.1064 15.1111Z" fill="white"/>
</g>
<defs>
<clipPath id="clip0_3570_17424">
<rect width="64" height="64" fill="white"/>
</clipPath>
</defs>
</svg>
