<svg width="87" height="18" viewBox="0 0 87 18" fill="none" xmlns="http://www.w3.org/2000/svg">
<g clip-path="url(#clip0_1549_2596)">
<g clip-path="url(#clip1_1549_2596)">
<path d="M13.1478 10.3153C13.1478 13.0641 11.0102 15.2999 8.29855 15.2999H7.12422C5.59035 15.2999 4.1252 14.6609 3.07971 13.5359L0.324874 10.5718C0.110663 10.3413 0 10.0387 0 9.77217C0 9.00509 0.640008 8.68525 1.0828 8.68525C1.37845 8.68525 1.67342 8.80349 1.8917 9.03763L2.81458 10.0307C2.87247 10.0626 2.945 10.0868 3.01408 10.0868C3.1559 10.0868 3.2926 9.97703 3.2926 9.80935V2.83836C3.2926 2.37971 3.6639 2.00759 4.09046 2.00759C4.5481 2.00759 4.88831 2.37971 4.88831 2.83836V8.0999C4.95172 8.40452 5.2004 8.65375 5.50434 8.65375C5.80829 8.65375 6.02588 8.4058 6.02588 8.13106L6.05697 1.73067C6.05697 1.27202 6.42826 0.899902 6.85482 0.899902C7.31246 0.899902 7.65267 1.27202 7.65267 1.73067V8.0999C7.71484 8.40452 7.96352 8.65375 8.26746 8.65375C8.57141 8.65375 8.81974 8.40576 8.81974 8.13106L8.82002 2.86259C8.82002 2.40394 9.19131 2.03183 9.61787 2.03183C10.0755 2.03183 10.4157 2.40394 10.4157 2.86259V8.13106C10.478 8.40452 10.7266 8.65375 11.0306 8.65375C11.3345 8.65375 11.5521 8.4058 11.5521 8.13106V4.4999C11.5521 4.04125 11.9234 3.66913 12.35 3.66913C12.8076 3.66913 13.1478 4.04125 13.1478 4.4999V10.3153Z" fill="white"/>
</g>
<path d="M25.4151 8.77433C25.967 9.05202 26.399 9.43384 26.7109 9.91979C27.0229 10.4057 27.1789 10.9669 27.1789 11.6033C27.1789 12.5983 26.8129 13.4256 26.081 14.0851C25.3371 14.7446 24.4432 15.0743 23.3993 15.0743H18V2.92557H23.0034C24.0353 2.92557 24.9052 3.24954 25.6131 3.89747C26.333 4.54541 26.6929 5.34375 26.6929 6.29251C26.6929 7.33384 26.267 8.16111 25.4151 8.77433ZM20.0697 4.79995V7.99334H23.0034C23.4593 7.99334 23.8433 7.84293 24.1553 7.5421C24.4672 7.2297 24.6232 6.84789 24.6232 6.39665C24.6232 5.94541 24.4672 5.56937 24.1553 5.26855C23.8433 4.95615 23.4593 4.79995 23.0034 4.79995H20.0697ZM23.3993 13.2C23.8793 13.2 24.2812 13.038 24.6052 12.714C24.9412 12.39 25.1091 11.9851 25.1091 11.4991C25.1091 11.0132 24.9412 10.6082 24.6052 10.2842C24.2812 9.96028 23.8793 9.7983 23.3993 9.7983H20.0697V13.2H23.3993Z" fill="white"/>
<path d="M35.1 6.39665H37.0438V15.0743H35.1V13.9636C34.5001 14.8545 33.5702 15.3 32.3104 15.3C31.2665 15.3 30.4266 14.9876 29.7907 14.3628C29.1668 13.7264 28.8548 12.8471 28.8548 11.7247V6.39665H30.7986V11.5338C30.7986 12.1933 30.9785 12.6966 31.3385 13.0438C31.6984 13.3793 32.1904 13.5471 32.8143 13.5471C33.4982 13.5471 34.0502 13.3446 34.4701 12.9396C34.8901 12.5231 35.1 11.8925 35.1 11.0479V6.39665Z" fill="white"/>
<path d="M41.0098 8.79169C41.0098 9.08094 41.1718 9.31235 41.4957 9.4859C41.8317 9.64788 42.2336 9.79251 42.7016 9.91979C43.0495 9.98921 43.4095 10.0876 43.7814 10.2148C44.1534 10.3305 44.4954 10.4925 44.8073 10.7008C45.1193 10.8975 45.3713 11.152 45.5632 11.4644C45.7672 11.7768 45.8632 12.1644 45.8512 12.6272C45.8512 13.4603 45.5152 14.114 44.8433 14.5884C44.1714 15.0628 43.3375 15.3 42.3416 15.3C41.4417 15.3 40.6738 15.1206 40.0379 14.7619C39.414 14.4033 38.958 13.9057 38.6701 13.2694L40.3439 12.3322C40.6438 13.1652 41.3097 13.5818 42.3416 13.5818C43.3615 13.5818 43.8714 13.2578 43.8714 12.6099C43.8714 12.3322 43.7035 12.1066 43.3675 11.933C43.0435 11.7595 42.6416 11.6148 42.1616 11.4991C41.8257 11.4181 41.4717 11.3198 41.0998 11.2041C40.7278 11.0884 40.3859 10.9322 40.0739 10.7355C39.7619 10.5272 39.504 10.2727 39.3 9.97185C39.108 9.65946 39.018 9.27764 39.03 8.8264C39.03 8.02805 39.342 7.3859 39.9659 6.89995C40.5898 6.414 41.3757 6.17103 42.3236 6.17103C43.0795 6.17103 43.7454 6.33301 44.3214 6.65698C44.8973 6.96937 45.3413 7.40904 45.6532 7.97598L44.0154 8.86111C43.7035 8.2016 43.1395 7.87185 42.3236 7.87185C41.9517 7.87185 41.6397 7.95284 41.3877 8.11483C41.1358 8.26524 41.0098 8.49086 41.0098 8.79169Z" fill="white"/>
<path d="M49.2902 4.74789C49.0502 4.97929 48.7622 5.09499 48.4263 5.09499C48.0903 5.09499 47.7964 4.97929 47.5444 4.74789C47.3044 4.50491 47.1844 4.22144 47.1844 3.89747C47.1844 3.5735 47.3044 3.29582 47.5444 3.06441C47.7844 2.82144 48.0783 2.69995 48.4263 2.69995C48.7742 2.69995 49.0682 2.82144 49.3082 3.06441C49.5481 3.29582 49.6681 3.5735 49.6681 3.89747C49.6681 4.22144 49.5421 4.50491 49.2902 4.74789ZM47.4544 15.0743V6.39665H49.3982V15.0743H47.4544Z" fill="white"/>
<path d="M56.3885 6.17103C57.4324 6.17103 58.2663 6.48921 58.8902 7.12557C59.5261 7.75036 59.8441 8.62392 59.8441 9.74623V15.0743H57.9003V9.93714C57.9003 9.27764 57.7203 8.78012 57.3604 8.44458C57.0004 8.09747 56.5085 7.92392 55.8845 7.92392C55.2006 7.92392 54.6487 8.13218 54.2288 8.54871C53.8088 8.95367 53.5988 9.57846 53.5988 10.4231V15.0743H51.6551V6.39665H53.5988V7.50739C54.1988 6.61648 55.1286 6.17103 56.3885 6.17103Z" fill="white"/>
<path d="M63.4668 11.5338C63.6108 12.1933 63.9348 12.7024 64.4387 13.0611C64.9546 13.4082 65.5906 13.5818 66.3465 13.5818C67.3664 13.5818 68.1403 13.2231 68.6682 12.5057L70.27 13.4082C69.3941 14.6694 68.0803 15.3 66.3285 15.3C64.8767 15.3 63.6948 14.8719 62.7829 14.0157C61.883 13.1479 61.4331 12.0545 61.4331 10.7355C61.4331 9.45119 61.877 8.36937 62.7649 7.49003C63.6408 6.6107 64.7807 6.17103 66.1845 6.17103C67.4923 6.17103 68.5722 6.61648 69.4241 7.50739C70.276 8.3983 70.7019 9.48012 70.7019 10.7528C70.7019 10.8454 70.6959 10.9611 70.684 11.1C70.672 11.2272 70.654 11.3719 70.63 11.5338H63.4668ZM68.7402 10.0066C68.6082 9.30078 68.3082 8.76855 67.8403 8.40987C67.3724 8.05119 66.8144 7.87185 66.1665 7.87185C65.4466 7.87185 64.8467 8.06276 64.3667 8.44458C63.8868 8.8264 63.5808 9.34706 63.4488 10.0066H68.7402Z" fill="white"/>
<path d="M73.8066 8.79169C73.8066 9.08094 73.9686 9.31235 74.2925 9.4859C74.6285 9.64788 75.0304 9.79251 75.4984 9.91979C75.8463 9.98921 76.2063 10.0876 76.5782 10.2148C76.9502 10.3305 77.2921 10.4925 77.6041 10.7008C77.9161 10.8975 78.168 11.152 78.36 11.4644C78.564 11.7768 78.66 12.1644 78.648 12.6272C78.648 13.4603 78.312 14.114 77.6401 14.5884C76.9682 15.0628 76.1343 15.3 75.1384 15.3C74.2385 15.3 73.4706 15.1206 72.8347 14.7619C72.2108 14.4033 71.7548 13.9057 71.4669 13.2694L73.1407 12.3322C73.4406 13.1652 74.1065 13.5818 75.1384 13.5818C76.1583 13.5818 76.6682 13.2578 76.6682 12.6099C76.6682 12.3322 76.5002 12.1066 76.1643 11.933C75.8403 11.7595 75.4384 11.6148 74.9584 11.4991C74.6225 11.4181 74.2685 11.3198 73.8966 11.2041C73.5246 11.0884 73.1826 10.9322 72.8707 10.7355C72.5587 10.5272 72.3008 10.2727 72.0968 9.97185C71.9048 9.65946 71.8148 9.27764 71.8268 8.8264C71.8268 8.02805 72.1388 7.3859 72.7627 6.89995C73.3866 6.414 74.1725 6.17103 75.1204 6.17103C75.8763 6.17103 76.5422 6.33301 77.1182 6.65698C77.6941 6.96937 78.138 7.40904 78.45 7.97598L76.8122 8.86111C76.5002 8.2016 75.9363 7.87185 75.1204 7.87185C74.7485 7.87185 74.4365 7.95284 74.1845 8.11483C73.9326 8.26524 73.8066 8.49086 73.8066 8.79169Z" fill="white"/>
<path d="M81.5576 8.79169C81.5576 9.08094 81.7196 9.31235 82.0435 9.4859C82.3795 9.64788 82.7814 9.79251 83.2494 9.91979C83.5973 9.98921 83.9573 10.0876 84.3292 10.2148C84.7012 10.3305 85.0432 10.4925 85.3551 10.7008C85.6671 10.8975 85.9191 11.152 86.111 11.4644C86.315 11.7768 86.411 12.1644 86.399 12.6272C86.399 13.4603 86.063 14.114 85.3911 14.5884C84.7192 15.0628 83.8853 15.3 82.8894 15.3C81.9895 15.3 81.2216 15.1206 80.5857 14.7619C79.9618 14.4033 79.5058 13.9057 79.2179 13.2694L80.8917 12.3322C81.1916 13.1652 81.8575 13.5818 82.8894 13.5818C83.9093 13.5818 84.4192 13.2578 84.4192 12.6099C84.4192 12.3322 84.2513 12.1066 83.9153 11.933C83.5913 11.7595 83.1894 11.6148 82.7094 11.4991C82.3735 11.4181 82.0195 11.3198 81.6476 11.2041C81.2756 11.0884 80.9337 10.9322 80.6217 10.7355C80.3097 10.5272 80.0518 10.2727 79.8478 9.97185C79.6558 9.65946 79.5658 9.27764 79.5778 8.8264C79.5778 8.02805 79.8898 7.3859 80.5137 6.89995C81.1376 6.414 81.9235 6.17103 82.8714 6.17103C83.6273 6.17103 84.2933 6.33301 84.8692 6.65698C85.4451 6.96937 85.8891 7.40904 86.201 7.97598L84.5632 8.86111C84.2513 8.2016 83.6873 7.87185 82.8714 7.87185C82.4995 7.87185 82.1875 7.95284 81.9355 8.11483C81.6836 8.26524 81.5576 8.49086 81.5576 8.79169Z" fill="white"/>
</g>
<defs>
<clipPath id="clip0_1549_2596">
<rect width="86.4" height="18" fill="white"/>
</clipPath>
<clipPath id="clip1_1549_2596">
<rect width="14.4" height="14.4" fill="white" transform="translate(0 0.899902)"/>
</clipPath>
</defs>
</svg>
